<svg width="48" height="50" viewBox="0 0 48 50" fill="none" xmlns="http://www.w3.org/2000/svg" xmlns:xlink="http://www.w3.org/1999/xlink">
<path d="M30.5,31C30.5,34.59 27.59,37.5 24,37.5L24,40.5C29.247,40.5 33.5,36.247 33.5,31L30.5,31ZM24,37.5C20.41,37.5 17.5,34.59 17.5,31L14.5,31C14.5,36.247 18.753,40.5 24,40.5L24,37.5ZM17.5,31C17.5,27.41 20.41,24.5 24,24.5L24,21.5C18.753,21.5 14.5,25.753 14.5,31L17.5,31ZM24,24.5C27.59,24.5 30.5,27.41 30.5,31L33.5,31C33.5,25.753 29.247,21.5 24,21.5L24,24.5Z" fill="#1A1A1A"/>
<path d="M21.942,29.939C21.356,29.354 20.406,29.354 19.82,29.939C19.234,30.525 19.234,31.475 19.82,32.061L21.942,29.939ZM22.181,32.3L23.242,31.239L23.242,31.239L22.181,32.3ZM23.561,32.32L22.544,31.217C22.529,31.231 22.515,31.245 22.5,31.259L23.561,32.32ZM28.137,30.143C28.746,29.582 28.785,28.633 28.224,28.024C27.663,27.414 26.714,27.376 26.104,27.937L28.137,30.143ZM19.82,32.061L21.12,33.361L23.242,31.239L21.942,29.939L19.82,32.061ZM21.12,33.361C22.046,34.286 23.616,34.386 24.622,33.381L22.5,31.259C22.746,31.014 23.076,31.074 23.242,31.239L21.12,33.361ZM24.577,33.423L28.137,30.143L26.104,27.937L22.544,31.217L24.577,33.423Z" fill="#1A1A1A"/>
<path d="M39.9,37.86L38.411,37.674L38.408,37.7L39.9,37.86ZM41.4,25.86L42.888,26.046L42.891,26.025L41.4,25.86ZM6.6,25.86L5.109,26.025L5.111,26.046L6.6,25.86ZM8.1,37.86L9.591,37.7L9.588,37.674L8.1,37.86ZM18,46.5L30,46.5L30,43.5L18,43.5L18,46.5ZM30,46.5C34.173,46.5 36.997,45.672 38.819,44.007C40.655,42.33 41.171,40.076 41.391,38.02L38.408,37.7C38.208,39.564 37.795,40.88 36.795,41.793C35.783,42.718 33.866,43.5 30,43.5L30,46.5ZM41.388,38.046L42.888,26.046L39.911,25.674L38.411,37.674L41.388,38.046ZM42.891,26.025C43.174,23.467 43.009,20.723 41.253,18.634C39.482,16.529 36.446,15.5 32,15.5L32,18.5C36.094,18.5 38.028,19.461 38.957,20.566C39.9,21.687 40.166,23.373 39.909,25.695L42.891,26.025ZM32,15.5L16,15.5L16,18.5L32,18.5L32,15.5ZM16,15.5C11.554,15.5 8.518,16.529 6.747,18.634C4.99,20.723 4.826,23.467 5.109,26.025L8.091,25.695C7.834,23.373 8.099,21.687 9.043,20.566C9.972,19.461 11.906,18.5 16,18.5L16,15.5ZM5.111,26.046L6.611,38.046L9.588,37.674L8.088,25.674L5.111,26.046ZM6.608,38.02C6.828,40.076 7.345,42.33 9.18,44.007C11.003,45.672 13.826,46.5 18,46.5L18,43.5C14.133,43.5 12.217,42.718 11.204,41.793C10.205,40.88 9.791,39.564 9.591,37.7L6.608,38.02Z" fill="#1A1A1A"/>
<path d="M13.5,16.34C13.5,17.168 14.172,17.84 15,17.84C15.828,17.84 16.5,17.168 16.5,16.34L13.5,16.34ZM23.12,5.06L23.259,6.554L23.265,6.553L23.12,5.06ZM31.5,16.78C31.5,17.608 32.172,18.28 33,18.28C33.828,18.28 34.5,17.608 34.5,16.78L31.5,16.78ZM16.5,16.34L16.5,14.4L13.5,14.4L13.5,16.34L16.5,16.34ZM16.5,14.4C16.5,10.585 19.616,6.894 23.259,6.554L22.981,3.567C17.624,4.067 13.5,9.215 13.5,14.4L16.5,14.4ZM23.265,6.553C27.731,6.12 31.5,9.633 31.5,14.02L34.5,14.02C34.5,7.887 29.229,2.96 22.975,3.567L23.265,6.553ZM31.5,14.02L31.5,16.78L34.5,16.78L34.5,14.02L31.5,14.02Z" fill="#1A1A1A"/>
</svg>
