<svg width="64" height="64" viewBox="0 0 64 64" fill="none" xmlns="http://www.w3.org/2000/svg" xmlns:xlink="http://www.w3.org/1999/xlink">
<path d="M20,14.667L15.5,14.667C14.672,14.667 14,15.363 14,16.222L14,50.444C14,51.304 14.672,52 15.5,52L48.5,52C49.328,52 50,51.304 50,50.444L50,16.222C50,15.363 49.328,14.667 48.5,14.667L44,14.667L40,14.667L24,14.667L20,14.667ZM47,24L17,24L17,48.889L47,48.889L47,24Z" clip-rule="evenodd" fill-rule="evenodd" fill="#6E7491"/>
<path d="M20,31C20,29.343 21.343,28 23,28L23,28C24.657,28 26,29.343 26,31L26,31C26,32.657 24.657,34 23,34L23,34C21.343,34 20,32.657 20,31L20,31Z" fill="#6E7491"/>
<path d="M44,37C44,35.343 42.657,34 41,34L41,34C39.343,34 38,35.343 38,37L38,37C38,38.657 39.343,40 41,40L41,40C42.657,40 44,38.657 44,37L44,37Z" fill="#6E7491"/>
</svg>
