<svg width="48" height="48" viewBox="0 0 48 48" fill="none" xmlns="http://www.w3.org/2000/svg" xmlns:xlink="http://www.w3.org/1999/xlink">
<path d="M30.5,25.8L30.5,34.2L33.5,34.2L33.5,25.8L30.5,25.8ZM30.5,34.2C30.5,37.552 29.82,39.508 28.664,40.664C27.508,41.82 25.552,42.5 22.2,42.5L22.2,45.5C25.848,45.5 28.792,44.78 30.786,42.786C32.78,40.792 33.5,37.848 33.5,34.2L30.5,34.2ZM22.2,42.5L13.8,42.5L13.8,45.5L22.2,45.5L22.2,42.5ZM13.8,42.5C10.448,42.5 8.492,41.82 7.336,40.664C6.18,39.508 5.5,37.552 5.5,34.2L2.5,34.2C2.5,37.848 3.22,40.792 5.214,42.786C7.208,44.78 10.152,45.5 13.8,45.5L13.8,42.5ZM5.5,34.2L5.5,25.8L2.5,25.8L2.5,34.2L5.5,34.2ZM5.5,25.8C5.5,22.448 6.18,20.492 7.336,19.336C8.492,18.18 10.448,17.5 13.8,17.5L13.8,14.5C10.152,14.5 7.208,15.22 5.214,17.214C3.22,19.208 2.5,22.152 2.5,25.8L5.5,25.8ZM13.8,17.5L22.2,17.5L22.2,14.5L13.8,14.5L13.8,17.5ZM22.2,17.5C25.552,17.5 27.508,18.18 28.664,19.336C29.82,20.492 30.5,22.448 30.5,25.8L33.5,25.8C33.5,22.152 32.78,19.208 30.786,17.214C28.792,15.22 25.848,14.5 22.2,14.5L22.2,17.5Z" fill="#292D32"/>
<path d="M32,32L30.5,32C30.5,32.828 31.172,33.5 32,33.5L32,32ZM16,16L14.5,16C14.5,16.828 15.172,17.5 16,17.5L16,16ZM42.5,13.8L42.5,22.2L45.5,22.2L45.5,13.8L42.5,13.8ZM42.5,22.2C42.5,25.552 41.82,27.508 40.664,28.664C39.508,29.82 37.552,30.5 34.2,30.5L34.2,33.5C37.848,33.5 40.792,32.78 42.786,30.786C44.78,28.792 45.5,25.848 45.5,22.2L42.5,22.2ZM34.2,30.5L32,30.5L32,33.5L34.2,33.5L34.2,30.5ZM33.5,32L33.5,25.8L30.5,25.8L30.5,32L33.5,32ZM33.5,25.8C33.5,22.152 32.78,19.208 30.786,17.214C28.792,15.22 25.848,14.5 22.2,14.5L22.2,17.5C25.552,17.5 27.508,18.18 28.664,19.336C29.82,20.492 30.5,22.448 30.5,25.8L33.5,25.8ZM22.2,14.5L16,14.5L16,17.5L22.2,17.5L22.2,14.5ZM17.5,16L17.5,13.8L14.5,13.8L14.5,16L17.5,16ZM17.5,13.8C17.5,10.448 18.18,8.492 19.336,7.336C20.492,6.18 22.448,5.5 25.8,5.5L25.8,2.5C22.152,2.5 19.208,3.22 17.214,5.214C15.22,7.208 14.5,10.152 14.5,13.8L17.5,13.8ZM25.8,5.5L34.2,5.5L34.2,2.5L25.8,2.5L25.8,5.5ZM34.2,5.5C37.552,5.5 39.508,6.18 40.664,7.336C41.82,8.492 42.5,10.448 42.5,13.8L45.5,13.8C45.5,10.152 44.78,7.208 42.786,5.214C40.792,3.22 37.848,2.5 34.2,2.5L34.2,5.5Z" fill="#292D32"/>
</svg>
