<svg width="48" height="48" viewBox="0 0 48 48" fill="none" xmlns="http://www.w3.org/2000/svg" xmlns:xlink="http://www.w3.org/1999/xlink">
<path d="M24.939,20.939C24.354,21.525 24.354,22.475 24.939,23.061C25.525,23.646 26.475,23.646 27.061,23.061L24.939,20.939ZM43.461,6.661C44.046,6.075 44.046,5.125 43.461,4.539C42.875,3.954 41.925,3.954 41.339,4.539L43.461,6.661ZM27.061,23.061L43.461,6.661L41.339,4.539L24.939,20.939L27.061,23.061Z" fill="#1A1A1A"/>
<path d="M42.5,13.6C42.5,14.428 43.172,15.1 44,15.1C44.829,15.1 45.5,14.428 45.5,13.6L42.5,13.6ZM44,4L45.5,4C45.5,3.172 44.829,2.5 44,2.5L44,4ZM34.4,2.5C33.572,2.5 32.9,3.172 32.9,4C32.9,4.828 33.572,5.5 34.4,5.5L34.4,2.5ZM45.5,13.6L45.5,4L42.5,4L42.5,13.6L45.5,13.6ZM44,2.5L34.4,2.5L34.4,5.5L44,5.5L44,2.5Z" fill="#1A1A1A"/>
<path d="M22,5.5C22.828,5.5 23.5,4.828 23.5,4C23.5,3.172 22.828,2.5 22,2.5L22,5.5ZM45.5,26C45.5,25.172 44.828,24.5 44,24.5C43.172,24.5 42.5,25.172 42.5,26L45.5,26ZM22,2.5L18,2.5L18,5.5L22,5.5L22,2.5ZM18,2.5C12.852,2.5 8.858,3.52 6.189,6.189C3.52,8.858 2.5,12.852 2.5,18L5.5,18C5.5,13.148 6.48,10.142 8.311,8.311C10.142,6.48 13.148,5.5 18,5.5L18,2.5ZM2.5,18L2.5,30L5.5,30L5.5,18L2.5,18ZM2.5,30C2.5,35.148 3.52,39.142 6.189,41.811C8.858,44.48 12.852,45.5 18,45.5L18,42.5C13.148,42.5 10.142,41.52 8.311,39.689C6.48,37.858 5.5,34.852 5.5,30L2.5,30ZM18,45.5L30,45.5L30,42.5L18,42.5L18,45.5ZM30,45.5C35.148,45.5 39.142,44.48 41.811,41.811C44.48,39.142 45.5,35.148 45.5,30L42.5,30C42.5,34.852 41.52,37.858 39.689,39.689C37.858,41.52 34.852,42.5 30,42.5L30,45.5ZM45.5,30L45.5,26L42.5,26L42.5,30L45.5,30Z" fill="#1A1A1A"/>
</svg>
