<svg width="16" height="18" viewBox="0 0 16 18" fill="none" xmlns="http://www.w3.org/2000/svg" xmlns:xlink="http://www.w3.org/1999/xlink">
<path d="M3.556,7.784L5.333,7.784L5.333,9.562L3.556,9.562L3.556,7.784ZM3.556,11.34L5.333,11.34L5.333,13.118L3.556,13.118L3.556,11.34ZM7.111,7.784L8.889,7.784L8.889,9.562L7.111,9.562L7.111,7.784ZM7.111,11.34L8.889,11.34L8.889,13.118L7.111,13.118L7.111,11.34ZM10.667,7.784L12.445,7.784L12.445,9.562L10.667,9.562L10.667,7.784ZM10.667,11.34L12.445,11.34L12.445,13.118L10.667,13.118L10.667,11.34Z" fill="#000000"/>
<path d="M1.778,17.562L14.222,17.562C15.203,17.562 16,16.765 16,15.784L16,3.34C16,2.359 15.203,1.562 14.222,1.562L12.444,1.562L12.444,-0.216L10.667,-0.216L10.667,1.562L5.333,1.562L5.333,-0.216L3.556,-0.216L3.556,1.562L1.778,1.562C0.797,1.562 0,2.359 0,3.34L0,15.784C0,16.765 0.797,17.562 1.778,17.562ZM14.222,5.118L14.223,15.784L1.778,15.784L1.778,5.118L14.222,5.118Z" fill="#000000"/>
</svg>
