<svg width="16" height="18" viewBox="0 0 16 18" fill="none" xmlns="http://www.w3.org/2000/svg" xmlns:xlink="http://www.w3.org/1999/xlink">
<path d="M3.556,7.121L5.333,7.121L5.333,8.898L3.556,8.898L3.556,7.121ZM3.556,10.676L5.333,10.676L5.333,12.454L3.556,12.454L3.556,10.676ZM7.111,7.121L8.889,7.121L8.889,8.898L7.111,8.898L7.111,7.121ZM7.111,10.676L8.889,10.676L8.889,12.454L7.111,12.454L7.111,10.676ZM10.667,7.121L12.445,7.121L12.445,8.898L10.667,8.898L10.667,7.121ZM10.667,10.676L12.445,10.676L12.445,12.454L10.667,12.454L10.667,10.676Z" fill="#000000"/>
<path d="M1.778,16.898L14.222,16.898C15.203,16.898 16,16.101 16,15.121L16,2.676C16,1.696 15.203,0.898 14.222,0.898L12.444,0.898L12.444,-0.879L10.667,-0.879L10.667,0.898L5.333,0.898L5.333,-0.879L3.556,-0.879L3.556,0.898L1.778,0.898C0.797,0.898 0,1.696 0,2.676L0,15.121C0,16.101 0.797,16.898 1.778,16.898ZM14.222,4.454L14.223,15.121L1.778,15.121L1.778,4.454L14.222,4.454Z" fill="#000000"/>
</svg>
