<svg width="16" height="20" viewBox="0 0 16 20" fill="none" xmlns="http://www.w3.org/2000/svg" xmlns:xlink="http://www.w3.org/1999/xlink">
<path d="M3.556,8.448L5.333,8.448L5.333,10.225L3.556,10.225L3.556,8.448ZM3.556,12.003L5.333,12.003L5.333,13.781L3.556,13.781L3.556,12.003ZM7.111,8.448L8.889,8.448L8.889,10.225L7.111,10.225L7.111,8.448ZM7.111,12.003L8.889,12.003L8.889,13.781L7.111,13.781L7.111,12.003ZM10.667,8.448L12.445,8.448L12.445,10.225L10.667,10.225L10.667,8.448ZM10.667,12.003L12.445,12.003L12.445,13.781L10.667,13.781L10.667,12.003Z" fill="#000000"/>
<path d="M1.778,18.225L14.222,18.225C15.203,18.225 16,17.428 16,16.448L16,4.003C16,3.023 15.203,2.225 14.222,2.225L12.444,2.225L12.444,0.448L10.667,0.448L10.667,2.225L5.333,2.225L5.333,0.448L3.556,0.448L3.556,2.225L1.778,2.225C0.797,2.225 0,3.023 0,4.003L0,16.448C0,17.428 0.797,18.225 1.778,18.225ZM14.222,5.781L14.223,16.448L1.778,16.448L1.778,5.781L14.222,5.781Z" fill="#000000"/>
</svg>
