<svg width="48" height="48" viewBox="0 0 48 48" fill="none" xmlns="http://www.w3.org/2000/svg" xmlns:xlink="http://www.w3.org/1999/xlink">
<path d="M16.5,22C16.5,22.828 17.172,23.5 18,23.5C18.828,23.5 19.5,22.828 19.5,22L16.5,22ZM28.5,22C28.5,22.828 29.172,23.5 30,23.5C30.828,23.5 31.5,22.828 31.5,22L28.5,22ZM19.5,22L19.5,20L16.5,20L16.5,22L19.5,22ZM19.5,20C19.5,18.429 19.751,17.368 20.293,16.697C20.778,16.095 21.755,15.5 24,15.5L24,12.5C21.245,12.5 19.222,13.245 17.957,14.813C16.749,16.312 16.5,18.251 16.5,20L19.5,20ZM24,15.5C26.245,15.5 27.222,16.095 27.707,16.697C28.249,17.368 28.5,18.429 28.5,20L31.5,20C31.5,18.251 31.251,16.312 30.043,14.813C28.778,13.245 26.755,12.5 24,12.5L24,15.5ZM28.5,20L28.5,22L31.5,22L31.5,20L28.5,20Z" fill="#292D32"/>
<path d="M23.7,28C23.7,27.834 23.834,27.7 24,27.7L24,30.7C25.491,30.7 26.7,29.491 26.7,28L23.7,28ZM24,27.7C24.166,27.7 24.3,27.834 24.3,28L21.3,28C21.3,29.491 22.508,30.7 24,30.7L24,27.7ZM24.3,28C24.3,28.166 24.166,28.3 24,28.3L24,25.3C22.508,25.3 21.3,26.509 21.3,28L24.3,28ZM24,28.3C23.834,28.3 23.7,28.166 23.7,28L26.7,28C26.7,26.509 25.491,25.3 24,25.3L24,28.3Z" fill="#292D32"/>
<path d="M29,32.5L19,32.5L19,35.5L29,35.5L29,32.5ZM19,32.5C16.989,32.5 16.334,32.212 16.061,31.939C15.788,31.666 15.5,31.011 15.5,29L12.5,29C12.5,30.989 12.712,32.834 13.939,34.061C15.166,35.288 17.011,35.5 19,35.5L19,32.5ZM15.5,29L15.5,27L12.5,27L12.5,29L15.5,29ZM15.5,27C15.5,24.989 15.788,24.334 16.061,24.061C16.334,23.788 16.989,23.5 19,23.5L19,20.5C17.011,20.5 15.166,20.712 13.939,21.939C12.712,23.166 12.5,25.011 12.5,27L15.5,27ZM19,23.5L29,23.5L29,20.5L19,20.5L19,23.5ZM29,23.5C31.011,23.5 31.666,23.788 31.939,24.061C32.212,24.334 32.5,24.989 32.5,27L35.5,27C35.5,25.011 35.288,23.166 34.061,21.939C32.834,20.712 30.989,20.5 29,20.5L29,23.5ZM32.5,27L32.5,29L35.5,29L35.5,27L32.5,27ZM32.5,29C32.5,31.011 32.212,31.666 31.939,31.939C31.666,32.212 31.011,32.5 29,32.5L29,35.5C30.989,35.5 32.834,35.288 34.061,34.061C35.288,32.834 35.5,30.989 35.5,29L32.5,29Z" fill="#292D32"/>
<path d="M42.5,24C42.5,34.217 34.217,42.5 24,42.5L24,45.5C35.874,45.5 45.5,35.874 45.5,24L42.5,24ZM24,42.5C13.783,42.5 5.5,34.217 5.5,24L2.5,24C2.5,35.874 12.126,45.5 24,45.5L24,42.5ZM5.5,24C5.5,13.783 13.783,5.5 24,5.5L24,2.5C12.126,2.5 2.5,12.126 2.5,24L5.5,24ZM24,5.5C34.217,5.5 42.5,13.783 42.5,24L45.5,24C45.5,12.126 35.874,2.5 24,2.5L24,5.5Z" fill="#292D32"/>
</svg>
