<svg width="794" height="122" viewBox="0 0 794 122" fill="none" xmlns="http://www.w3.org/2000/svg" xmlns:xlink="http://www.w3.org/1999/xlink">
<path d="M0,61C0,41.423 0,31.634 3.352,23.97C7.386,14.748 14.748,7.386 23.97,3.352C31.634,0 41.423,0 61,0L276.476,0C292.494,0 300.502,0 307.596,2.809C310.322,3.888 312.922,5.264 315.348,6.912C321.66,11.199 326.162,17.821 335.168,31.066L337.938,35.14C359.498,66.846 370.276,82.699 384.16,86.698C392.022,88.962 400.388,88.761 408.132,86.122C421.808,81.463 431.814,65.111 451.828,32.407L451.828,32.407C459.744,19.47 463.704,13.001 469.342,8.565C472.614,5.989 476.27,3.941 480.174,2.493C486.902,0 494.486,0 509.654,0L733,0C752.576,0 762.366,0 770.03,3.352C779.252,7.386 786.614,14.748 790.648,23.97C794,31.634 794,41.423 794,61L794,61C794,80.577 794,90.366 790.648,98.03C786.614,107.252 779.252,114.614 770.03,118.648C762.366,122 752.578,122 733,122L61,122C41.423,122 31.634,122 23.97,118.648C14.748,114.614 7.386,107.252 3.352,98.03C0,90.366 0,80.577 0,61L0,61Z" fill="#FFFFFF" fill-opacity="0.8" stroke="#B9B9B9" stroke-width="1" stroke-miterlimit="3.999327"/>
</svg>
