<svg width="30" height="30" viewBox="0 0 30 30" fill="none" xmlns="http://www.w3.org/2000/svg" xmlns:xlink="http://www.w3.org/1999/xlink">
<path d="M25.25,14.375C25.25,20.381 20.381,25.25 14.375,25.25L14.375,27.25C21.486,27.25 27.25,21.486 27.25,14.375L25.25,14.375ZM14.375,25.25C8.369,25.25 3.5,20.381 3.5,14.375L1.5,14.375C1.5,21.486 7.264,27.25 14.375,27.25L14.375,25.25ZM3.5,14.375C3.5,8.369 8.369,3.5 14.375,3.5L14.375,1.5C7.264,1.5 1.5,7.264 1.5,14.375L3.5,14.375ZM14.375,3.5C20.381,3.5 25.25,8.369 25.25,14.375L27.25,14.375C27.25,7.264 21.486,1.5 14.375,1.5L14.375,3.5Z" fill="#C4C4C4"/>
<path d="M26.793,28.207C27.183,28.598 27.817,28.598 28.207,28.207C28.598,27.817 28.598,27.183 28.207,26.793L26.793,28.207ZM25.707,24.293C25.317,23.902 24.683,23.902 24.293,24.293C23.902,24.683 23.902,25.317 24.293,25.707L25.707,24.293ZM28.207,26.793L25.707,24.293L24.293,25.707L26.793,28.207L28.207,26.793Z" fill="#C4C4C4"/>
</svg>
