<svg width="48" height="48" viewBox="0 0 48 48" fill="none" xmlns="http://www.w3.org/2000/svg" xmlns:xlink="http://www.w3.org/1999/xlink">
<path d="M41.82,22.24L40.32,22.237L40.32,22.24L41.82,22.24ZM25.02,43.86L25.414,45.307L25.419,45.306L25.02,43.86ZM22.98,43.86L22.58,45.306L22.585,45.307L22.98,43.86ZM8.96,9.34L9.52,10.732L9.528,10.728L8.96,9.34ZM20.1,4.78L19.533,3.391L19.531,3.392L20.1,4.78ZM27.92,4.78L28.488,3.392L28.486,3.391L27.92,4.78ZM39.06,9.34L38.491,10.728L38.493,10.729L39.06,9.34ZM41.84,13.46L43.34,13.463L43.34,13.46L41.84,13.46ZM40.32,22.24C40.32,31.322 33.693,39.907 24.62,42.414L25.419,45.306C35.746,42.453 43.32,32.719 43.32,22.24L40.32,22.24ZM24.625,42.413C24.223,42.523 23.776,42.523 23.374,42.413L22.585,45.307C23.503,45.558 24.496,45.558 25.414,45.307L24.625,42.413ZM23.379,42.414C14.306,39.907 7.68,31.322 7.68,22.24L4.68,22.24C4.68,32.719 12.253,42.453 22.58,45.306L23.379,42.414ZM7.68,22.24L7.68,13.46L4.68,13.46L4.68,22.24L7.68,22.24ZM7.68,13.46C7.68,12.998 7.864,12.41 8.237,11.854C8.61,11.299 9.086,10.906 9.52,10.732L8.4,7.949C7.294,8.394 6.379,9.241 5.747,10.181C5.116,11.12 4.68,12.282 4.68,13.46L7.68,13.46ZM9.528,10.728L20.668,6.168L19.531,3.392L8.391,7.952L9.528,10.728ZM20.666,6.169C22.803,5.297 25.216,5.297 27.353,6.169L28.486,3.391C25.623,2.223 22.396,2.223 19.533,3.391L20.666,6.169ZM27.351,6.168L38.491,10.728L39.628,7.952L28.488,3.392L27.351,6.168ZM38.493,10.729C38.921,10.903 39.399,11.299 39.777,11.857C40.154,12.416 40.34,13.004 40.34,13.46L43.34,13.46C43.34,12.276 42.895,11.114 42.263,10.178C41.63,9.242 40.719,8.397 39.626,7.951L38.493,10.729ZM40.34,13.457L40.32,22.237L43.32,22.244L43.34,13.463L40.34,13.457Z" fill="#292D32"/>
<path d="M26.5,21C26.5,22.381 25.381,23.5 24,23.5L24,26.5C27.038,26.5 29.5,24.038 29.5,21L26.5,21ZM24,23.5C22.619,23.5 21.5,22.381 21.5,21L18.5,21C18.5,24.038 20.962,26.5 24,26.5L24,23.5ZM21.5,21C21.5,19.619 22.619,18.5 24,18.5L24,15.5C20.962,15.5 18.5,17.962 18.5,21L21.5,21ZM24,18.5C25.381,18.5 26.5,19.619 26.5,21L29.5,21C29.5,17.962 27.038,15.5 24,15.5L24,18.5Z" fill="#292D32"/>
<line x1="22.5" y1="25" x2="22.5" y2="31" stroke="#292D32" stroke-width="1.5" stroke-miterlimit="10" stroke-linecap="round" stroke-linejoin="round"/>
</svg>
