<svg width="48" height="48" viewBox="0 0 48 48" fill="none" xmlns="http://www.w3.org/2000/svg" xmlns:xlink="http://www.w3.org/1999/xlink">
<path d="M36.779,38.012C37.15,38.753 38.051,39.052 38.792,38.681C39.532,38.31 39.832,37.409 39.461,36.668L36.779,38.012ZM33.84,28.8L35.181,28.128C34.926,27.62 34.407,27.3 33.84,27.3C33.272,27.3 32.753,27.62 32.499,28.128L33.84,28.8ZM28.219,36.668C27.847,37.409 28.147,38.31 28.887,38.681C29.628,39.052 30.529,38.753 30.901,38.012L28.219,36.668ZM39.461,36.668L35.181,28.128L32.499,29.472L36.779,38.012L39.461,36.668ZM32.499,28.128L28.219,36.668L30.901,38.012L35.181,29.472L32.499,28.128Z" fill="#292D32"/>
<line x1="30.34" y1="34.32" x2="37.38" y2="34.32" stroke="#292D32" stroke-width="1.5" stroke-miterlimit="3.999327" stroke-linecap="round" stroke-linejoin="round"/>
<path d="M33.84,42.5C29.066,42.5 25.18,38.63 25.18,33.84L22.18,33.84C22.18,40.29 27.413,45.5 33.84,45.5L33.84,42.5ZM25.18,33.84C25.18,29.067 29.05,25.18 33.84,25.18L33.84,22.18C27.389,22.18 22.18,27.414 22.18,33.84L25.18,33.84ZM33.84,25.18C38.613,25.18 42.5,29.05 42.5,33.84L45.5,33.84C45.5,27.39 40.266,22.18 33.84,22.18L33.84,25.18ZM42.5,33.84C42.5,38.632 38.631,42.5 33.84,42.5L33.84,45.5C40.288,45.5 45.5,40.289 45.5,33.84L42.5,33.84Z" fill="#292D32"/>
<path d="M23.92,10.04L22.42,10.003C22.42,10.015 22.42,10.028 22.42,10.04L23.92,10.04ZM23.92,17.88L22.42,17.88C22.42,17.892 22.42,17.904 22.42,17.916L23.92,17.88ZM17.88,23.92L17.916,22.42C17.904,22.42 17.892,22.42 17.88,22.42L17.88,23.92ZM10.04,23.92L10.04,22.42C10.03,22.42 10.02,22.42 10.01,22.42L10.04,23.92ZM10.04,5.5L17.88,5.5L17.88,2.5L10.04,2.5L10.04,5.5ZM17.88,5.5C19.735,5.5 20.813,5.949 21.429,6.566C22.039,7.175 22.465,8.216 22.42,10.003L25.42,10.077C25.475,7.824 24.951,5.845 23.551,4.444C22.157,3.051 20.165,2.5 17.88,2.5L17.88,5.5ZM22.42,10.04L22.42,17.88L25.42,17.88L25.42,10.04L22.42,10.04ZM22.42,17.916C22.465,19.766 22.033,20.826 21.429,21.429C20.826,22.033 19.766,22.465 17.916,22.42L17.844,25.42C20.134,25.475 22.144,24.957 23.551,23.551C24.957,22.144 25.475,20.134 25.42,17.844L22.42,17.916ZM17.88,22.42L10.04,22.42L10.04,25.42L17.88,25.42L17.88,22.42ZM10.01,22.42C8.222,22.456 7.179,22.026 6.567,21.413C5.949,20.794 5.5,19.714 5.5,17.86L2.5,17.86C2.5,20.146 3.051,22.137 4.443,23.532C5.841,24.934 7.818,25.464 10.07,25.42L10.01,22.42ZM5.5,17.86L5.5,10.02L2.5,10.02L2.5,17.86L5.5,17.86ZM5.5,10.02C5.5,8.239 5.942,7.185 6.564,6.564C7.187,5.943 8.247,5.5 10.04,5.5L10.04,2.5C7.793,2.5 5.833,3.057 4.446,4.441C3.058,5.825 2.5,7.781 2.5,10.02L5.5,10.02Z" fill="#292D32"/>
<line x1="9.899" y1="10.2" x2="18.019" y2="10.2" stroke="#292D32" stroke-width="1.5" stroke-miterlimit="3.999327" stroke-linecap="round" stroke-linejoin="round"/>
<line x1="12.439" y1="10.34" x2="12.439" y2="11.7" stroke="#292D32" stroke-width="1.5" stroke-miterlimit="3.999327" stroke-linecap="round" stroke-linejoin="round"/>
<path d="M17.48,11.68C17.48,10.852 16.808,10.18 15.98,10.18C15.151,10.18 14.48,10.852 14.48,11.68L17.48,11.68ZM9.88,16.52C9.051,16.52 8.38,17.191 8.38,18.02C8.38,18.848 9.051,19.52 9.88,19.52L9.88,16.52ZM14.48,11.68C14.48,14.405 12.359,16.52 9.88,16.52L9.88,19.52C14.121,19.52 17.48,15.955 17.48,11.68L14.48,11.68Z" fill="#292D32"/>
<path d="M18.02,19.52C18.849,19.52 19.52,18.848 19.52,18.02C19.52,17.192 18.849,16.52 18.02,16.52L18.02,19.52ZM15.525,15.106C15.031,14.441 14.092,14.302 13.427,14.795C12.761,15.289 12.622,16.228 13.116,16.894L15.525,15.106ZM18.02,16.52C17.126,16.52 16.221,16.045 15.525,15.106L13.116,16.894C14.259,18.435 15.994,19.52 18.02,19.52L18.02,16.52Z" fill="#292D32"/>
<path d="M5.5,30C5.5,29.172 4.828,28.5 4,28.5C3.172,28.5 2.5,29.172 2.5,30L5.5,30ZM18,44L18,45.5C18.54,45.5 19.039,45.209 19.305,44.739C19.572,44.269 19.564,43.692 19.286,43.228L18,44ZM17.186,39.728C16.76,39.018 15.839,38.788 15.128,39.214C14.418,39.64 14.188,40.561 14.614,41.272L17.186,39.728ZM2.5,30C2.5,38.568 9.432,45.5 18,45.5L18,42.5C11.088,42.5 5.5,36.912 5.5,30L2.5,30ZM19.286,43.228L17.186,39.728L14.614,41.272L16.714,44.772L19.286,43.228Z" fill="#292D32"/>
<path d="M42.5,18C42.5,18.828 43.172,19.5 44,19.5C44.828,19.5 45.5,18.828 45.5,18L42.5,18ZM30,4L30,2.5C29.46,2.5 28.961,2.791 28.695,3.261C28.428,3.731 28.436,4.308 28.714,4.772L30,4ZM30.814,8.272C31.24,8.982 32.161,9.212 32.872,8.786C33.582,8.36 33.812,7.439 33.386,6.728L30.814,8.272ZM45.5,18C45.5,9.432 38.568,2.5 30,2.5L30,5.5C36.912,5.5 42.5,11.088 42.5,18L45.5,18ZM28.714,4.772L30.814,8.272L33.386,6.728L31.286,3.228L28.714,4.772Z" fill="#292D32"/>
</svg>
