<svg width="430" height="420" viewBox="0 0 430 420" fill="none" xmlns="http://www.w3.org/2000/svg" xmlns:xlink="http://www.w3.org/1999/xlink">
<path d="M272.982,94.457L157.116,94.457C154.475,94.46 151.944,95.511 150.077,97.379C148.21,99.247 147.16,101.78 147.156,104.422L147.156,362.1L145.829,362.506L117.405,371.216C116.058,371.626 114.603,371.486 113.359,370.824C112.116,370.162 111.185,369.034 110.772,367.688L26.224,91.341C25.813,89.993 25.953,88.536 26.614,87.292C27.275,86.047 28.403,85.116 29.75,84.704L73.551,71.283L200.532,32.391L244.332,18.97C244.998,18.765 245.7,18.693 246.394,18.759C247.088,18.825 247.762,19.028 248.378,19.355C248.994,19.682 249.54,20.127 249.984,20.665C250.428,21.204 250.762,21.824 250.966,22.492L272.576,93.128L272.982,94.457Z" fill="#F2F2F2"/>
<path d="M298.266,93.128L272.218,7.995C271.784,6.577 271.076,5.258 270.134,4.113C269.19,2.969 268.032,2.022 266.722,1.326C265.414,0.63 263.98,0.199 262.504,0.057C261.028,-0.084 259.54,0.067 258.122,0.501L196.541,19.363L69.567,58.262L7.985,77.13C5.124,78.009 2.729,79.988 1.325,82.632C-0.079,85.277 -0.378,88.371 0.495,91.235L89.518,382.184C90.228,384.496 91.659,386.52 93.602,387.958C95.545,389.398 97.897,390.174 100.314,390.176C101.433,390.178 102.545,390.01 103.614,389.678L145.828,376.75L147.156,376.338L147.156,374.95L145.828,375.354L103.223,388.41C100.697,389.18 97.97,388.916 95.639,387.678C93.307,386.438 91.562,384.324 90.787,381.8L1.771,90.843C1.386,89.592 1.252,88.277 1.376,86.974C1.5,85.671 1.88,84.406 2.494,83.25C3.107,82.094 3.943,81.07 4.952,80.238C5.962,79.406 7.125,78.781 8.377,78.399L69.958,59.531L196.933,20.638L258.514,1.77C259.464,1.48 260.45,1.333 261.442,1.332C263.572,1.337 265.644,2.023 267.354,3.292C269.066,4.56 270.326,6.344 270.95,8.381L296.878,93.128L297.29,94.457L298.67,94.457L298.266,93.128Z" fill="#3F3D56"/>
<path d="M81.454,84.921C80.175,84.92 78.929,84.509 77.9,83.747C76.871,82.986 76.113,81.915 75.737,80.691L67.185,52.74C66.955,51.989 66.875,51.2 66.95,50.418C67.025,49.637 67.253,48.877 67.621,48.184C67.989,47.491 68.49,46.876 69.096,46.377C69.701,45.877 70.399,45.502 71.149,45.272L187.965,9.486C189.48,9.023 191.117,9.181 192.516,9.925C193.915,10.669 194.963,11.938 195.428,13.453L203.98,41.405C204.442,42.921 204.284,44.559 203.541,45.959C202.798,47.359 201.53,48.407 200.016,48.873L83.2,84.658C82.634,84.832 82.046,84.921 81.454,84.921Z" fill="#1A8EEA"/>
<path d="M126.253,29.867C133.586,29.867 139.532,23.918 139.532,16.579C139.532,9.241 133.586,3.292 126.253,3.292C118.919,3.292 112.974,9.241 112.974,16.579C112.974,23.918 118.919,29.867 126.253,29.867Z" fill="#1A8EEA"/>
<path d="M126.253,24.993C130.897,24.993 134.662,21.226 134.662,16.579C134.662,11.932 130.897,8.165 126.253,8.165C121.609,8.165 117.845,11.932 117.845,16.579C117.845,21.226 121.609,24.993 126.253,24.993Z" fill="#FFFFFF"/>
<path d="M400.123,386.781L175.706,386.781C174.21,386.779 172.775,386.183 171.717,385.125C170.659,384.067 170.064,382.631 170.063,381.133L170.063,112.062C170.064,110.565 170.659,109.13 171.717,108.071C172.775,107.012 174.21,106.417 175.706,106.415L400.123,106.415C401.619,106.417 403.053,107.013 404.11,108.071C405.168,109.13 405.765,110.565 405.767,112.062L405.767,381.133C405.765,382.631 405.168,384.067 404.11,385.125C403.053,386.183 401.619,386.779 400.123,386.781Z" fill="#E6E6E6"/>
<path d="M296.878,93.128L157.115,93.128C154.123,93.132 151.255,94.323 149.139,96.441C147.023,98.558 145.832,101.428 145.828,104.422L145.828,375.354L147.156,374.948L147.156,104.422C147.159,101.78 148.21,99.247 150.077,97.379C151.944,95.511 154.475,94.46 157.115,94.457L297.289,94.457L296.878,93.128ZM418.712,93.128L157.115,93.128C154.123,93.132 151.255,94.323 149.139,96.441C147.023,98.558 145.832,101.428 145.828,104.422L145.828,408.706C145.832,411.7 147.023,414.57 149.139,416.688C151.255,418.804 154.123,419.996 157.115,420L418.712,420C421.704,419.996 424.574,418.804 426.69,416.688C428.806,414.57 429.996,411.7 430,408.706L430,104.422C429.996,101.428 428.806,98.558 426.69,96.441C424.574,94.323 421.704,93.132 418.712,93.128ZM428.672,408.706C428.668,411.348 427.618,413.88 425.752,415.748C423.884,417.618 421.354,418.668 418.712,418.672L157.115,418.672C154.475,418.668 151.944,417.618 150.077,415.748C148.21,413.88 147.159,411.348 147.156,408.706L147.156,104.422C147.159,101.78 148.21,99.247 150.077,97.379C151.944,95.511 154.475,94.46 157.115,94.457L418.712,94.457C421.354,94.46 423.884,95.511 425.752,97.379C427.618,99.247 428.668,101.78 428.672,104.422L428.672,408.706Z" fill="#3F3D56"/>
<path d="M348.998,122.36L226.831,122.36C225.247,122.359 223.728,121.728 222.608,120.607C221.487,119.486 220.857,117.966 220.855,116.381L220.855,87.149C220.857,85.563 221.487,84.043 222.608,82.922C223.728,81.802 225.247,81.171 226.831,81.169L348.998,81.169C350.583,81.171 352.101,81.802 353.222,82.922C354.342,84.043 354.972,85.563 354.974,87.149L354.974,116.381C354.972,117.966 354.342,119.486 353.222,120.607C352.101,121.728 350.583,122.359 348.998,122.36Z" fill="#1A8EEA"/>
<path d="M287.914,83.162C295.248,83.162 301.193,77.213 301.193,69.875C301.193,62.536 295.248,56.587 287.914,56.587C280.58,56.587 274.635,62.536 274.635,69.875C274.635,77.213 280.58,83.162 287.914,83.162Z" fill="#1A8EEA"/>
<path d="M287.914,77.968C292.381,77.968 296.003,74.345 296.003,69.875C296.003,65.405 292.381,61.781 287.914,61.781C283.447,61.781 279.826,65.405 279.826,69.875C279.826,74.345 283.447,77.968 287.914,77.968Z" fill="#FFFFFF"/>
</svg>
