<svg width="124" height="70" viewBox="0 0 124 70" fill="none" xmlns="http://www.w3.org/2000/svg" xmlns:xlink="http://www.w3.org/1999/xlink">
<path d="M9.329,69.965L9.199,69.723C10.949,68.775 13.126,67.595 14.264,65.658C15.385,63.749 15.41,61.156 14.329,58.892C13.41,56.965 11.72,55.239 9.444,53.9C8.995,53.636 8.523,53.385 8.067,53.143C6.965,52.558 5.826,51.953 4.887,51.094C3.593,49.912 2.613,47.927 3.343,46.16C3.583,45.596 3.976,45.11 4.478,44.758C4.979,44.407 5.569,44.203 6.18,44.171L6.196,44.445C5.636,44.475 5.095,44.661 4.636,44.983C4.176,45.305 3.816,45.75 3.596,46.267C2.918,47.909 3.848,49.773 5.071,50.891C5.985,51.726 7.109,52.323 8.196,52.9C8.654,53.144 9.128,53.395 9.583,53.663C11.907,55.03 13.634,56.797 14.577,58.774C15.697,61.119 15.667,63.811 14.5,65.797C13.324,67.8 11.109,69 9.329,69.965Z" fill="#F1F1F1"/>
<path d="M7.92,45.62C9.246,45.62 10.32,45.097 10.32,44.451C10.32,43.806 9.246,43.283 7.92,43.283C6.593,43.283 5.519,43.806 5.519,44.451C5.519,45.097 6.593,45.62 7.92,45.62Z" fill="#F1F1F1"/>
<path d="M9.839,53.319C11.165,53.319 12.24,52.796 12.24,52.151C12.24,51.505 11.165,50.982 9.839,50.982C8.513,50.982 7.438,51.505 7.438,52.151C7.438,52.796 8.513,53.319 9.839,53.319Z" fill="#F1F1F1"/>
<path d="M5.45,54.556C6.776,54.556 7.851,54.033 7.851,53.388C7.851,52.742 6.776,52.219 5.45,52.219C4.124,52.219 3.049,52.742 3.049,53.388C3.049,54.033 4.124,54.556 5.45,54.556Z" fill="#F1F1F1"/>
<path d="M12.309,61.018C13.635,61.018 14.71,60.495 14.71,59.85C14.71,59.204 13.635,58.681 12.309,58.681C10.983,58.681 9.908,59.204 9.908,59.85C9.908,60.495 10.983,61.018 12.309,61.018Z" fill="#F1F1F1"/>
<path d="M17.111,61.018C18.437,61.018 19.512,60.495 19.512,59.85C19.512,59.204 18.437,58.681 17.111,58.681C15.785,58.681 14.71,59.204 14.71,59.85C14.71,60.495 15.785,61.018 17.111,61.018Z" fill="#F1F1F1"/>
<path d="M124,2.121L46.786,2.121L46.786,38.838L124,38.838L124,2.121Z" fill="#E6E6E6"/>
<path d="M121.793,5.27L48.994,5.27L48.994,35.903L121.793,35.903L121.793,5.27Z" fill="#FFFFFF"/>
<path d="M123.967,0L46.753,0L46.753,3.287L123.967,3.287L123.967,0Z" fill="#FFEAD7"/>
<path d="M49.191,2.13C49.527,2.13 49.799,1.857 49.799,1.52C49.799,1.184 49.527,0.911 49.191,0.911C48.855,0.911 48.583,1.184 48.583,1.52C48.583,1.857 48.855,2.13 49.191,2.13Z" fill="#FFFFFF"/>
<path d="M51.499,2.13C51.834,2.13 52.107,1.857 52.107,1.52C52.107,1.184 51.834,0.911 51.499,0.911C51.163,0.911 50.891,1.184 50.891,1.52C50.891,1.857 51.163,2.13 51.499,2.13Z" fill="#FFFFFF"/>
<path d="M53.806,2.13C54.142,2.13 54.414,1.857 54.414,1.52C54.414,1.184 54.142,0.911 53.806,0.911C53.47,0.911 53.198,1.184 53.198,1.52C53.198,1.857 53.47,2.13 53.806,2.13Z" fill="#FFFFFF"/>
<path d="M81.554,12.54C81.476,12.54 81.401,12.571 81.346,12.626C81.291,12.682 81.26,12.757 81.26,12.835C81.26,12.913 81.291,12.988 81.346,13.044C81.401,13.099 81.476,13.13 81.554,13.13L97.717,13.13C97.795,13.13 97.87,13.099 97.925,13.044C97.98,12.988 98.011,12.913 98.011,12.835C98.011,12.757 97.98,12.682 97.925,12.626C97.87,12.571 97.795,12.54 97.717,12.54L81.554,12.54Z" fill="#E6E6E6"/>
<path d="M81.555,14.311C81.477,14.311 81.402,14.342 81.347,14.397C81.292,14.453 81.261,14.528 81.261,14.606C81.261,14.684 81.292,14.759 81.347,14.814C81.402,14.87 81.477,14.901 81.555,14.901L89.806,14.901C89.884,14.901 89.959,14.87 90.014,14.814C90.069,14.759 90.1,14.684 90.1,14.606C90.1,14.528 90.069,14.453 90.014,14.397C89.959,14.342 89.884,14.311 89.806,14.311L81.555,14.311Z" fill="#E6E6E6"/>
<path d="M81.148,22.884C81.07,22.884 80.995,22.915 80.94,22.97C80.885,23.025 80.854,23.1 80.854,23.179C80.854,23.257 80.885,23.332 80.94,23.387C80.995,23.443 81.07,23.474 81.148,23.474L111.453,23.474C111.531,23.474 111.606,23.443 111.661,23.387C111.716,23.332 111.747,23.257 111.747,23.179C111.747,23.1 111.716,23.025 111.661,22.97C111.606,22.915 111.531,22.884 111.453,22.884L81.148,22.884Z" fill="#E6E6E6"/>
<path d="M81.147,24.655C81.069,24.655 80.995,24.686 80.94,24.741C80.884,24.797 80.854,24.872 80.854,24.95C80.854,25.028 80.884,25.103 80.94,25.158C80.995,25.214 81.069,25.245 81.147,25.245L103.541,25.245C103.619,25.245 103.694,25.214 103.749,25.158C103.804,25.103 103.835,25.028 103.835,24.95C103.835,24.872 103.804,24.797 103.749,24.741C103.694,24.686 103.619,24.655 103.541,24.655L81.147,24.655Z" fill="#E6E6E6"/>
<path d="M81.147,26.386C81.069,26.386 80.995,26.417 80.94,26.472C80.884,26.528 80.854,26.603 80.854,26.681C80.854,26.759 80.884,26.834 80.94,26.889C80.995,26.945 81.069,26.976 81.147,26.976L111.452,26.976C111.53,26.976 111.605,26.945 111.66,26.889C111.715,26.834 111.746,26.759 111.746,26.681C111.746,26.603 111.715,26.528 111.66,26.472C111.605,26.417 111.53,26.386 111.452,26.386L81.147,26.386Z" fill="#E6E6E6"/>
<path d="M81.147,28.157C81.069,28.157 80.995,28.188 80.94,28.244C80.884,28.299 80.854,28.374 80.854,28.452C80.854,28.53 80.884,28.605 80.94,28.661C80.995,28.716 81.069,28.747 81.147,28.747L103.541,28.747C103.619,28.747 103.694,28.716 103.749,28.661C103.804,28.605 103.835,28.53 103.835,28.452C103.835,28.374 103.804,28.299 103.749,28.244C103.694,28.188 103.619,28.157 103.541,28.157L81.147,28.157Z" fill="#E6E6E6"/>
<path d="M65.304,24.082C66.721,24.082 67.869,22.931 67.869,21.511C67.869,20.092 66.721,18.941 65.304,18.941C63.888,18.941 62.739,20.092 62.739,21.511C62.739,22.931 63.888,24.082 65.304,24.082Z" fill="#A0616A"/>
<path d="M64.492,19.455C64.492,19.455 65.689,19.776 66.309,19.905C66.928,20.033 66.864,19.669 66.864,19.669C66.864,19.669 67.677,19.776 67.634,19.691C67.591,19.605 67.976,19.155 67.527,18.641C67.078,18.127 67.206,17.742 67.206,17.742L66.822,17.742L66.715,17.592L66.116,17.592C66.116,17.592 65.455,17.01 64.279,17.182C63.104,17.353 61.713,17.806 61.585,18.513C61.568,18.609 61.545,18.715 61.518,18.828C61.197,20.188 61.88,21.46 62.588,22.664C62.762,22.96 63.604,23.605 63.583,23.162C63.561,22.72 62.825,21.726 63.338,21.661C63.851,21.597 64.727,20.291 64.492,19.455Z" fill="#2F2E41"/>
<path d="M63.85,29.82C63.355,29.781 62.864,29.7 62.382,29.579L62.409,29.066L62.633,24.991L62.635,24.959L67.153,24.959L67.862,28.712L67.958,29.218C67.771,29.291 67.582,29.36 67.388,29.42C67.386,29.42 67.386,29.422 67.384,29.422C67.116,29.506 66.844,29.579 66.569,29.639C66.204,29.718 65.835,29.775 65.463,29.81C65.176,29.838 64.887,29.852 64.598,29.852C64.349,29.852 64.097,29.841 63.85,29.82Z" fill="#FFEAD7"/>
<path d="M60.945,29.095C60.758,29.014 60.577,28.926 60.398,28.835L60.321,28.795C60.269,28.768 60.215,28.739 60.163,28.71C60.093,28.67 60.024,28.631 59.957,28.591C59.893,28.553 59.826,28.514 59.762,28.474C59.758,28.472 59.756,28.47 59.752,28.47C59.527,28.326 59.307,28.178 59.095,28.018C59.059,27.991 59.024,27.964 58.989,27.937L58.951,27.337L59.005,27.303L62.633,24.991L62.683,24.959L62.687,24.957L63.199,24.959L63.199,26.868C63.488,27.287 63.683,28.164 63.804,29.312C63.821,29.476 63.835,29.645 63.85,29.82C63.355,29.78 62.864,29.7 62.382,29.578C62.33,29.568 62.28,29.556 62.228,29.541C61.925,29.462 61.626,29.366 61.334,29.253C61.244,29.22 61.157,29.185 61.07,29.149L61.061,29.145C61.024,29.128 60.982,29.112 60.945,29.095Z" fill="#2F2E41"/>
<path d="M60.163,28.71C60.093,28.67 60.024,28.631 59.957,28.591C59.893,28.553 59.826,28.514 59.762,28.474C59.758,28.472 59.756,28.47 59.752,28.47C59.527,28.326 59.307,28.178 59.095,28.018C59.059,27.991 59.024,27.964 58.989,27.937C58.972,27.922 58.955,27.91 58.937,27.895C58.804,27.793 58.675,27.687 58.55,27.574C58.544,27.57 58.539,27.564 58.533,27.56C58.659,27.463 58.8,27.387 58.951,27.337L59.099,27.38L60.151,27.697L60.157,28.124L60.163,28.71Z" fill="#2F2E41"/>
<path d="M69.022,28.716C68.96,28.749 68.897,28.783 68.835,28.814C68.82,28.822 68.808,28.829 68.795,28.835C68.712,28.877 68.631,28.918 68.548,28.958C68.546,28.96 68.542,28.96 68.542,28.962C68.538,28.964 68.531,28.966 68.527,28.968C68.34,29.058 68.151,29.141 67.958,29.218C67.77,29.291 67.581,29.36 67.388,29.42C67.386,29.42 67.386,29.422 67.384,29.422C67.116,29.506 66.843,29.579 66.569,29.639C66.566,29.468 66.588,29.297 66.635,29.133L66.637,29.104L66.816,26.203L66.577,24.96L67.263,24.857L71.037,26.893C71.037,26.893 70.621,27.31 68.914,28.197C68.763,28.276 68.985,28.537 69.022,28.716Z" fill="#2F2E41"/>
<path d="M65.417,29.31C65.147,29.335 64.872,29.347 64.598,29.347C64.332,29.347 64.068,29.337 63.804,29.312C63.82,29.477 63.835,29.645 63.849,29.82C64.097,29.841 64.348,29.852 64.598,29.852C64.887,29.852 65.175,29.839 65.463,29.81C65.835,29.775 66.204,29.718 66.569,29.639C66.566,29.468 66.588,29.297 66.636,29.133L66.638,29.104C66.236,29.202 65.828,29.27 65.417,29.31ZM73.274,17.617C72.835,16.353 72.125,15.199 71.196,14.237C70.266,13.276 69.138,12.529 67.89,12.049C66.642,11.569 65.305,11.367 63.972,11.458C62.639,11.549 61.342,11.93 60.17,12.575C58.999,13.221 57.983,14.114 57.192,15.193C56.4,16.272 55.854,17.512 55.59,18.824C55.325,20.137 55.35,21.492 55.662,22.794C55.974,24.096 56.566,25.314 57.396,26.364C57.479,26.468 57.564,26.572 57.652,26.672C57.66,26.68 57.664,26.687 57.67,26.693C57.885,26.941 58.113,27.177 58.354,27.399C58.413,27.453 58.473,27.508 58.533,27.56C58.539,27.564 58.543,27.57 58.55,27.574C58.674,27.687 58.803,27.793 58.936,27.895C58.955,27.91 58.972,27.922 58.988,27.937C59.024,27.964 59.059,27.991 59.094,28.018C59.307,28.179 59.527,28.326 59.751,28.47C59.756,28.47 59.758,28.472 59.762,28.474C59.826,28.514 59.893,28.554 59.957,28.591C60.024,28.631 60.092,28.67 60.163,28.71C60.215,28.739 60.269,28.768 60.321,28.795L60.398,28.835C60.577,28.927 60.758,29.014 60.945,29.095C60.982,29.112 61.024,29.129 61.061,29.145L61.07,29.149C61.157,29.185 61.244,29.22 61.334,29.254C61.626,29.366 61.925,29.462 62.228,29.541C62.28,29.556 62.33,29.568 62.382,29.579C62.863,29.7 63.354,29.781 63.849,29.82C64.097,29.841 64.348,29.852 64.598,29.852C64.887,29.852 65.175,29.839 65.463,29.81C65.835,29.775 66.204,29.718 66.569,29.639C66.843,29.579 67.116,29.506 67.384,29.422C67.386,29.422 67.386,29.42 67.388,29.42C67.581,29.36 67.771,29.291 67.958,29.218C68.151,29.141 68.34,29.058 68.528,28.968C68.532,28.966 68.538,28.964 68.542,28.962C68.542,28.96 68.546,28.96 68.548,28.958C68.631,28.918 68.713,28.877 68.796,28.835C68.808,28.829 68.821,28.822 68.835,28.814C68.898,28.783 68.96,28.749 69.022,28.716C69.027,28.714 69.029,28.712 69.033,28.71C69.197,28.618 69.359,28.522 69.519,28.42C69.563,28.393 69.607,28.366 69.65,28.335C69.715,28.295 69.777,28.251 69.837,28.208C69.918,28.151 69.999,28.093 70.079,28.033C70.105,28.016 70.13,27.997 70.153,27.976C70.347,27.831 70.534,27.676 70.713,27.514C72.069,26.303 73.036,24.717 73.492,22.955C73.948,21.193 73.872,19.336 73.274,17.617ZM70.557,26.976C70.332,27.189 70.096,27.389 69.85,27.576C69.796,27.618 69.74,27.66 69.684,27.697C69.629,27.739 69.575,27.779 69.519,27.816C69.472,27.849 69.424,27.883 69.374,27.914C69.37,27.918 69.363,27.92 69.359,27.924C69.324,27.949 69.286,27.972 69.251,27.995C69.141,28.064 69.027,28.133 68.914,28.197C68.887,28.212 68.862,28.229 68.835,28.243C68.821,28.251 68.806,28.26 68.789,28.268C68.727,28.304 68.665,28.335 68.602,28.368C68.594,28.374 68.584,28.376 68.575,28.383C68.572,28.383 68.569,28.385 68.567,28.387C68.523,28.41 68.48,28.431 68.436,28.451C68.399,28.47 68.363,28.489 68.326,28.506C68.174,28.579 68.018,28.647 67.862,28.712C67.698,28.779 67.532,28.839 67.363,28.895C67.322,28.91 67.278,28.927 67.234,28.939C67.037,29.002 66.839,29.058 66.638,29.104C66.236,29.202 65.828,29.27 65.417,29.31C65.147,29.335 64.872,29.347 64.598,29.347C64.332,29.347 64.068,29.337 63.804,29.312C63.333,29.269 62.866,29.187 62.409,29.066C62.392,29.062 62.373,29.058 62.357,29.054C61.981,28.956 61.614,28.83 61.257,28.679C61.238,28.67 61.217,28.664 61.201,28.656C61.18,28.647 61.161,28.641 61.144,28.633C61.124,28.624 61.105,28.616 61.086,28.608C60.93,28.539 60.779,28.464 60.627,28.387L60.556,28.349C60.421,28.279 60.288,28.206 60.157,28.124C60.111,28.099 60.063,28.07 60.018,28.041C59.966,28.01 59.914,27.976 59.864,27.943C59.851,27.935 59.839,27.926 59.826,27.918C59.71,27.839 59.591,27.76 59.479,27.674C59.4,27.616 59.323,27.56 59.246,27.499C59.196,27.462 59.146,27.422 59.099,27.381C59.067,27.358 59.036,27.331 59.005,27.303C58.963,27.268 58.922,27.233 58.88,27.195C58.816,27.143 58.756,27.085 58.697,27.031C58.463,26.814 58.242,26.585 58.034,26.343C57.963,26.264 57.897,26.185 57.832,26.101C57.817,26.085 57.804,26.067 57.791,26.049C56.744,24.725 56.105,23.124 55.95,21.442C55.796,19.76 56.133,18.069 56.922,16.576C57.71,15.083 58.915,13.852 60.39,13.033C61.864,12.214 63.545,11.843 65.226,11.966C66.907,12.088 68.517,12.698 69.858,13.721C71.199,14.744 72.215,16.136 72.78,17.728C73.345,19.319 73.436,21.041 73.041,22.683C72.646,24.326 71.783,25.817 70.557,26.976Z" fill="#3F3D56"/>
<path d="M22.423,68.289L24.105,68.289L24.905,61.787L22.423,61.787L22.423,68.289Z" fill="#A0616A"/>
<path d="M21.994,67.738L25.307,67.738L25.307,67.738C25.867,67.738 26.404,67.961 26.799,68.358C27.195,68.755 27.418,69.293 27.418,69.854L27.418,69.922L21.994,69.923L21.994,67.738Z" fill="#2F2E41"/>
<path d="M28.734,68.289L30.416,68.289L31.216,61.787L28.733,61.787L28.734,68.289Z" fill="#A0616A"/>
<path d="M28.305,67.738L31.617,67.738L31.617,67.738C32.177,67.738 32.714,67.961 33.11,68.358C33.506,68.755 33.728,69.293 33.728,69.854L33.728,69.922L28.305,69.923L28.305,67.738Z" fill="#2F2E41"/>
<path d="M17.319,42.598C17.457,42.451 17.56,42.274 17.623,42.082C17.685,41.89 17.705,41.686 17.68,41.486C17.655,41.285 17.587,41.093 17.48,40.921C17.373,40.75 17.23,40.604 17.061,40.494L18.229,35.723L15.829,36.58L15.088,40.979C14.922,41.277 14.872,41.624 14.945,41.957C15.018,42.289 15.211,42.583 15.486,42.782C15.761,42.982 16.099,43.073 16.437,43.039C16.775,43.005 17.089,42.849 17.319,42.598Z" fill="#9E616A"/>
<path d="M35.174,42.186C35.036,42.038 34.933,41.862 34.87,41.67C34.808,41.478 34.788,41.274 34.813,41.074C34.838,40.873 34.906,40.68 35.013,40.509C35.12,40.338 35.263,40.192 35.432,40.082L34.264,35.311L36.664,36.167L37.405,40.567C37.571,40.864 37.622,41.212 37.548,41.544C37.475,41.877 37.282,42.17 37.007,42.37C36.732,42.569 36.394,42.661 36.056,42.627C35.718,42.593 35.404,42.436 35.174,42.186Z" fill="#9E616A"/>
<path d="M19.532,39.254L21.864,66.622L25.275,66.311L26.64,45.159L27.855,53.534L28.099,66.838L31.186,66.632L32.9,52.319L32.479,38.459L20.76,37.269L19.532,39.254Z" fill="#2F2E41"/>
<path d="M25.946,14.349C27.9,14.349 29.484,12.762 29.484,10.804C29.484,8.846 27.9,7.259 25.946,7.259C23.992,7.259 22.408,8.846 22.408,10.804C22.408,12.762 23.992,14.349 25.946,14.349Z" fill="#A0616A"/>
<path d="M24.826,7.968C24.826,7.968 26.477,8.411 27.332,8.588C28.187,8.765 28.098,8.263 28.098,8.263C28.098,8.263 29.218,8.411 29.159,8.293C29.101,8.175 29.631,7.554 29.012,6.845C28.393,6.136 28.57,5.604 28.57,5.604L28.039,5.604L27.892,5.398L27.066,5.398C27.066,5.398 26.154,4.596 24.532,4.832C22.911,5.068 20.993,5.693 20.816,6.668C20.792,6.8 20.761,6.947 20.724,7.102C20.281,8.978 21.223,10.733 22.2,12.394C22.44,12.802 23.602,13.692 23.572,13.081C23.542,12.47 22.526,11.099 23.234,11.011C23.941,10.922 25.15,9.12 24.826,7.968Z" fill="#2F2E41"/>
<path d="M22.264,15.56L28.494,15.56L32.9,38.874C32.9,38.874 29.059,39.203 26.864,40.028C24.669,40.853 21.02,38.144 21.02,38.144L22.264,15.56Z" fill="#FFEAD7"/>
<path d="M23.042,18.193L23.042,15.56L22.337,15.556L17.183,18.84L18.301,36.832C18.301,36.832 19.625,42.834 21.632,42.772C23.64,42.709 25.188,21.311 23.042,18.193Z" fill="#2F2E41"/>
<path d="M18.839,19.337L17.183,18.84C17.183,18.84 15.957,19.199 15.957,20.436C15.957,21.674 14.901,39.254 14.901,39.254L18.256,39.551L18.976,30.61L18.839,19.337Z" fill="#2F2E41"/>
<path d="M28.03,17.274L27.7,15.56L28.648,15.418L32.078,16.793C32.078,16.793 35.165,39.409 33.793,40.097C32.421,40.784 31.494,40.252 31.494,40.252C31.494,40.252 26.982,23.571 27.78,21.316L28.03,17.274Z" fill="#2F2E41"/>
<path d="M29.677,17.137L30.262,16.882C30.262,16.882 31.98,16.028 32.955,17.751C33.93,19.474 37.36,38.722 37.36,38.722L34.538,39.254L32.428,32.327L29.677,17.137Z" fill="#2F2E41"/>
<path d="M52.409,70L0.137,70C0.101,70 0.066,69.986 0.04,69.96C0.014,69.934 0,69.899 0,69.863C0,69.826 0.014,69.791 0.04,69.765C0.066,69.74 0.101,69.725 0.137,69.725L52.409,69.725C52.446,69.725 52.481,69.74 52.506,69.765C52.532,69.791 52.547,69.826 52.547,69.863C52.547,69.899 52.532,69.934 52.506,69.96C52.481,69.986 52.446,70 52.409,70Z" fill="#CACACA"/>
</svg>
