<svg width="94" height="70" viewBox="0 0 94 70" fill="none" xmlns="http://www.w3.org/2000/svg" xmlns:xlink="http://www.w3.org/1999/xlink">
<path d="M37.615,6.752C36.47,8.688 38.627,11.951 36.453,12.628L36.632,12.453C37.944,10.869 35.202,7.517 36.514,5.933C36.718,5.701 36.893,5.446 37.035,5.173Z" fill="#2F2E41"/>
<path d="M48.341,35.158C48.379,34.965 48.372,34.765 48.323,34.574C48.273,34.383 48.182,34.205 48.054,34.052C47.927,33.899 47.767,33.776 47.586,33.69C47.405,33.605 47.207,33.559 47.006,33.557L44.175,25.485L42.608,27.446L45.601,34.988C45.62,35.319 45.762,35.633 46,35.868C46.238,36.104 46.556,36.246 46.894,36.267C47.232,36.288 47.566,36.187 47.832,35.983C48.099,35.778 48.28,35.485 48.341,35.158Z" fill="#FFB8B8"/>
<path d="M35.897,15.67C35.897,15.67 35.809,12.748 38.471,14.422C41.133,16.096 46.93,31.775 46.93,31.775L44.045,33.307L37.497,18.959L35.897,15.67Z" fill="#FFEAD7"/>
<path d="M43.752,65.748L42.423,66.306L39.599,61.539L41.561,60.716L43.752,65.748Z" fill="#FFB6B6"/>
<path d="M45.437,67.715L44.484,68.115L43.929,67.303L43.878,68.369L41.349,69.429C41.228,69.48 41.094,69.491 40.965,69.462C40.837,69.432 40.722,69.363 40.636,69.265C40.551,69.166 40.499,69.044 40.49,68.915C40.48,68.786 40.513,68.657 40.584,68.548L42.007,66.332L41.618,65.439L43.796,64.673L45.437,67.715Z" fill="#2F2E41"/>
<path d="M22.912,67.365L21.468,67.296L21.053,61.797L23.184,61.899L22.912,67.365Z" fill="#FFB6B6"/>
<path d="M23.552,69.857L22.516,69.808L22.379,68.839L21.858,69.776L19.111,69.644C18.98,69.638 18.854,69.591 18.751,69.509C18.649,69.427 18.576,69.316 18.543,69.19C18.51,69.065 18.519,68.933 18.568,68.813C18.617,68.693 18.704,68.591 18.816,68.523L21.083,67.142L21.131,66.172L23.431,66.417L23.552,69.857Z" fill="#2F2E41"/>
<path d="M65.458,66.489C65.553,66.493 65.648,66.467 65.728,66.416C65.808,66.365 65.871,66.291 65.907,66.204C65.943,66.117 65.951,66.021 65.93,65.93C65.909,65.838 65.859,65.755 65.788,65.692C65.776,65.646 65.767,65.613 65.755,65.568C65.844,65.339 66.001,65.141 66.206,65C66.41,64.859 66.653,64.782 66.903,64.777C67.152,64.772 67.398,64.841 67.608,64.974C67.817,65.107 67.982,65.299 68.08,65.524C68.645,66.79 69.374,68.099 69.032,69.502C71.336,64.588 70.477,58.51 66.961,54.359C65.995,53.849 65.207,52.933 64.994,51.864C65.471,52.017 66.06,51.632 65.698,51.144C65.541,50.958 65.383,50.773 65.226,50.586C67.014,48.682 69.195,51.629 67.232,54.195C67.89,54.989 68.461,55.849 68.937,56.76C68.82,55.789 68.939,54.805 69.285,53.888C69.637,53.033 70.304,52.31 70.89,51.568C71.603,50.665 73.092,51.065 73.2,52.202C72.536,52.423 72.459,53.368 73.222,53.49C73.043,55.609 71.653,57.567 69.721,58.514C70.457,60.481 70.757,62.579 70.602,64.669C70.921,62.225 73.584,61.608 75.441,60.621C75.559,60.545 75.697,60.504 75.838,60.504C75.979,60.504 76.117,60.544 76.235,60.62C76.353,60.695 76.447,60.803 76.504,60.929C76.561,61.056 76.579,61.196 76.556,61.333C76.299,61.438 76.054,61.568 75.824,61.721C75.716,61.793 75.634,61.897 75.588,62.018C75.542,62.138 75.536,62.269 75.57,62.393C75.603,62.518 75.675,62.629 75.775,62.711C75.875,62.794 75.999,62.844 76.13,62.855C75.211,65.148 72.795,66.704 70.297,66.719C70.067,67.745 69.729,68.744 69.289,69.701L65.582,69.736C65.568,69.696 65.556,69.654 65.544,69.614C65.887,69.632 66.231,69.609 66.569,69.544C65.651,68.498 64.944,67.967 65.458,66.489Z" fill="#F2F2F2"/>
<path d="M26.559,31.62C26.559,31.62 23.623,39.473 23.575,40.352C23.528,41.231 22.691,52.345 21.988,52.991C21.286,53.637 19.139,63.648 20.809,64.431C22.48,65.214 27.751,63.917 27.751,63.917L29.585,52.091L30.208,43.031C30.208,43.031 32.104,64.366 35.544,64.303C38.984,64.24 43.175,62.955 43.175,62.955L38.361,50.034C38.361,50.034 38.429,34.738 37.313,31.653C36.197,28.567 26.559,31.62 26.559,31.62Z" fill="#2F2E41"/>
<path d="M35.272,11.386L31.34,11.739L30.706,13.648C30.706,13.648 27.415,15.422 28.144,16.227C28.872,17.033 27.981,22.464 27.981,22.464L28.182,26.872C28.182,26.872 27.966,29.926 27.318,30.63C26.671,31.333 24.977,33.059 26.174,32.233C30.37,29.339 37.705,31.781 37.705,31.781L36.657,25.483C36.657,25.483 39.037,15.17 38.098,14.299C37.159,13.428 36.273,13.318 36.273,13.318L35.272,11.386Z" fill="#FFEAD7"/>
<path d="M14.609,31.365C14.806,31.329 14.993,31.251 15.157,31.136C15.32,31.021 15.456,30.873 15.555,30.701C15.653,30.529 15.713,30.338 15.728,30.141C15.743,29.945 15.714,29.747 15.643,29.563L22.276,24.04L19.846,23.32L13.775,28.798C13.467,28.936 13.221,29.179 13.084,29.483C12.946,29.786 12.927,30.129 13.03,30.445C13.133,30.762 13.35,31.03 13.641,31.199C13.932,31.369 14.277,31.428 14.609,31.365Z" fill="#FFB8B8"/>
<path d="M31.453,16.92C31.453,16.92 32.76,14.293 29.631,14.742C26.503,15.19 14.639,27.133 14.639,27.133L16.624,29.695L28.615,19.269L31.453,16.92Z" fill="#FFEAD7"/>
<path d="M26.359,12.464L13.955,28.06C13.74,28.33 13.644,28.673 13.687,29.014C13.729,29.354 13.908,29.664 14.183,29.876C17.064,36.74 25.681,41.83 35.819,46.45C36.095,46.661 36.444,46.755 36.791,46.713C37.138,46.671 37.454,46.496 37.669,46.226L50.073,30.63C50.288,30.36 50.385,30.016 50.342,29.676C50.299,29.336 50.121,29.026 49.845,28.814C41.338,24.1 34.026,18.638 28.209,12.24C27.934,12.03 27.584,11.935 27.237,11.977C26.89,12.019 26.575,12.194 26.359,12.464Z" fill="#E6E6E6"/>
<path d="M49.202,30.275L45.426,35.023C43.12,37.905 39.745,39.774 36.039,40.223C32.332,40.671 28.596,39.662 25.645,37.415L15.064,29.309C14.907,29.189 14.806,29.013 14.781,28.819C14.757,28.626 14.811,28.43 14.933,28.276L26.919,13.206C27.042,13.053 27.222,12.953 27.419,12.929C27.617,12.906 27.816,12.96 27.972,13.08C33.325,19.863 40.49,25.142 49.072,29.243C49.229,29.363 49.33,29.539 49.355,29.733C49.379,29.927 49.324,30.122 49.202,30.275Z" fill="#FFFFFF"/>
<path d="M26.111,20.978L23.652,24.069C23.587,24.151 23.491,24.204 23.386,24.217C23.281,24.23 23.175,24.201 23.091,24.137C23.008,24.073 22.954,23.979 22.941,23.876C22.928,23.773 22.957,23.669 23.022,23.587L25.481,20.495C25.513,20.454 25.553,20.42 25.599,20.395C25.645,20.37 25.695,20.353 25.747,20.347C25.799,20.341 25.852,20.344 25.903,20.358C25.953,20.372 26.001,20.395 26.042,20.427C26.083,20.459 26.118,20.498 26.144,20.543C26.17,20.588 26.186,20.637 26.193,20.688C26.199,20.74 26.195,20.791 26.181,20.841C26.167,20.891 26.143,20.937 26.111,20.978Z" fill="#CCCCCC"/>
<path d="M30.723,18.685L25.323,25.474C25.291,25.515 25.251,25.549 25.205,25.574C25.159,25.599 25.109,25.616 25.057,25.622C25.005,25.628 24.952,25.624 24.901,25.611C24.851,25.597 24.804,25.574 24.762,25.542C24.721,25.51 24.686,25.471 24.66,25.426C24.634,25.381 24.618,25.332 24.611,25.281C24.605,25.23 24.609,25.178 24.623,25.128C24.637,25.078 24.661,25.032 24.693,24.991L30.093,18.202C30.125,18.161 30.165,18.127 30.211,18.102C30.257,18.076 30.307,18.06 30.359,18.054C30.411,18.047 30.464,18.051 30.515,18.065C30.566,18.078 30.613,18.102 30.654,18.134C30.696,18.165 30.73,18.205 30.756,18.25C30.782,18.294 30.799,18.344 30.805,18.395C30.811,18.446 30.808,18.498 30.793,18.548C30.779,18.598 30.755,18.644 30.723,18.685Z" fill="#CCCCCC"/>
<path d="M21.513,30.009C22.967,30.009 24.145,28.853 24.145,27.426C24.145,25.999 22.967,24.843 21.513,24.843C20.059,24.843 18.881,25.999 18.881,27.426C18.881,28.853 20.059,30.009 21.513,30.009Z" fill="#FFEAD7"/>
<path d="M31.01,24.05L24.378,32.389C24.308,32.458 24.216,32.5 24.117,32.506C24.019,32.513 23.921,32.483 23.843,32.424C23.765,32.364 23.713,32.278 23.695,32.183C23.677,32.088 23.696,31.989 23.748,31.907L30.38,23.568C30.449,23.499 30.542,23.457 30.64,23.45C30.739,23.444 30.837,23.474 30.914,23.533C30.992,23.593 31.045,23.678 31.063,23.774C31.08,23.869 31.062,23.968 31.01,24.05Z" fill="#CCCCCC"/>
<path d="M35.312,22.147L26.055,33.785C25.986,33.855 25.893,33.896 25.795,33.903C25.696,33.909 25.599,33.88 25.521,33.82C25.443,33.76 25.39,33.675 25.373,33.579C25.355,33.484 25.374,33.386 25.425,33.303L34.682,21.664C34.752,21.595 34.844,21.553 34.943,21.547C35.041,21.54 35.139,21.57 35.217,21.629C35.295,21.689 35.348,21.775 35.365,21.87C35.383,21.965 35.364,22.064 35.312,22.147Z" fill="#CCCCCC"/>
<path d="M35.28,27.322L28.648,35.661C28.579,35.73 28.486,35.771 28.388,35.778C28.289,35.784 28.192,35.755 28.114,35.695C28.036,35.635 27.983,35.55 27.965,35.454C27.948,35.359 27.967,35.261 28.018,35.178L34.65,26.839C34.72,26.77 34.812,26.728 34.911,26.722C35.01,26.715 35.107,26.745 35.185,26.805C35.263,26.864 35.316,26.95 35.333,27.045C35.351,27.141 35.332,27.239 35.28,27.322Z" fill="#CCCCCC"/>
<path d="M44.056,28.35L37.424,36.689C37.354,36.758 37.262,36.8 37.163,36.806C37.064,36.813 36.967,36.783 36.889,36.723C36.811,36.664 36.758,36.578 36.741,36.483C36.723,36.387 36.742,36.289 36.794,36.206L43.426,27.867C43.495,27.798 43.588,27.757 43.686,27.75C43.785,27.744 43.882,27.773 43.96,27.833C44.038,27.892 44.091,27.978 44.109,28.074C44.126,28.169 44.107,28.267 44.056,28.35Z" fill="#FFEAD7"/>
<path d="M39.583,25.418L30.326,37.057C30.257,37.126 30.164,37.168 30.065,37.174C29.967,37.18 29.869,37.151 29.791,37.091C29.714,37.032 29.661,36.946 29.643,36.851C29.626,36.755 29.644,36.657 29.696,36.574L38.953,24.935C39.022,24.866 39.115,24.824 39.213,24.818C39.312,24.811 39.41,24.841 39.487,24.901C39.565,24.96 39.618,25.046 39.636,25.141C39.653,25.237 39.635,25.335 39.583,25.418Z" fill="#CCCCCC"/>
<path d="M28.68,6.459C28.679,7.086 28.836,7.704 29.136,8.258C29.436,8.812 29.87,9.286 30.4,9.637C30.93,9.988 31.539,10.206 32.175,10.272C32.811,10.338 33.454,10.25 34.047,10.015C34.64,9.781 35.165,9.407 35.576,8.926C35.988,8.446 36.273,7.874 36.406,7.26C36.539,6.646 36.517,6.01 36.342,5.407C36.166,4.803 35.842,4.251 35.398,3.8L35.38,3.781C35.348,3.749 35.317,3.717 35.284,3.686C35.284,3.686 35.284,3.686 35.284,3.686C35.283,3.686 35.283,3.686 35.283,3.686C35.283,3.686 35.283,3.685 35.283,3.685C35.283,3.685 35.283,3.685 35.283,3.685C35.242,3.648 35.201,3.611 35.159,3.576C34.595,3.09 33.9,2.774 33.157,2.666C32.415,2.558 31.656,2.663 30.972,2.967C30.289,3.271 29.709,3.762 29.302,4.381C28.896,5.001 28.679,5.722 28.68,6.459Z" fill="#2F2E41"/>
<path d="M33.548,10.56C35.357,10.56 36.823,9.121 36.823,7.345C36.823,5.57 35.357,4.131 33.548,4.131C31.739,4.131 30.272,5.57 30.272,7.345C30.272,9.121 31.739,10.56 33.548,10.56Z" fill="#FFB8B8"/>
<path d="M30.056,8.202C29.736,6.786 30.199,5.2 31.208,4.254C31.715,3.788 32.347,3.472 33.029,3.342C33.711,3.213 34.417,3.274 35.065,3.521C35.147,3.553 35.23,3.589 35.311,3.626L35.348,3.644L35.348,3.649C35.356,3.654 35.363,3.659 35.37,3.665C35.385,3.679 35.404,3.689 35.424,3.694C35.709,3.687 35.991,3.738 36.254,3.846C36.517,3.953 36.753,4.114 36.948,4.317C37.456,4.858 37.695,5.731 37.621,6.777L37.619,6.81L37.591,6.827C37.206,7.066 36.808,7.282 36.396,7.474C34.959,8.137 33.646,8.26 32.384,7.849L32.361,7.841L31.831,6.97C31.723,7.571 31.781,9.564 31.157,9.672L30.07,8.262L30.056,8.202Z" fill="#2F2E41"/>
<path d="M23.161,11.001C24.275,10.436 22.842,8.387 23.13,7.189C23.418,5.991 25.492,5.606 25.625,4.381C25.757,3.157 26.068,1.895 26.891,0.966C27.417,0.372 28.192,-0.066 28.99,0.008C29.26,0.033 29.521,0.115 29.756,0.249C29.991,0.382 30.193,0.563 30.35,0.78C30.507,0.997 30.615,1.245 30.665,1.506C30.716,1.768 30.709,2.037 30.644,2.295C30.871,1.979 31.459,2.048 31.604,2.407C31.734,2.727 31.448,3.114 31.112,3.142C30.671,3.675 30.167,4.241 29.478,4.349C29.368,4.374 29.254,4.374 29.144,4.349C29.034,4.324 28.932,4.275 28.844,4.205C28.682,4.053 28.669,3.747 28.861,3.633C27.995,3.97 27.487,4.89 27.358,5.796C27.23,6.703 27.408,7.62 27.525,8.528C27.642,9.435 27.692,10.39 27.33,11.234C26.901,12.23 25.915,12.944 24.838,13.172C23.761,13.401 22.614,13.178 21.64,12.674C20.665,12.169 19.852,11.4 19.188,10.537C20.332,11.334 21.914,11.632 23.161,11.001Z" fill="#2F2E41"/>
<path d="M31.984,7.138C30.838,9.074 32.995,12.336 30.821,13.014L31,12.838C32.312,11.254 29.57,7.902 30.882,6.319C31.086,6.086 31.261,5.831 31.403,5.558Z" fill="#2F2E41"/>
<path d="M30.209,8.173C30.209,8.173 31.179,4.618 35.339,3.798C35.343,3.796 35.359,3.79 35.379,3.781C35.392,3.773 35.407,3.766 35.423,3.758C35.376,3.732 35.331,3.709 35.284,3.686L35.283,3.686L35.283,3.686L35.282,3.685L35.282,3.684C35.242,3.648 35.201,3.611 35.159,3.576L35.04,3.58C35.04,3.58 30.867,2.932 30.209,8.173Z" fill="#FD6584"/>
<path d="M0,69.847C0,69.867 0.004,69.887 0.012,69.906C0.02,69.924 0.031,69.941 0.046,69.955C0.06,69.97 0.077,69.981 0.096,69.989C0.115,69.996 0.135,70 0.156,70L93.844,70C93.885,70 93.925,69.984 93.954,69.955C93.984,69.927 94,69.888 94,69.847C94,69.806 93.984,69.768 93.954,69.739C93.925,69.71 93.885,69.694 93.844,69.694L0.156,69.694C0.135,69.694 0.115,69.698 0.096,69.706C0.077,69.713 0.06,69.725 0.046,69.739C0.031,69.753 0.02,69.77 0.012,69.788C0.004,69.807 0,69.827 0,69.847Z" fill="#CCCCCC"/>
</svg>
