<svg width="106" height="68" viewBox="0 0 106 68" fill="none" xmlns="http://www.w3.org/2000/svg" xmlns:xlink="http://www.w3.org/1999/xlink">
<path d="M87.764,67.903L88.051,67.897C87.94,64.666 87.6,61.448 87.033,58.266C85.792,51.454 83.73,46.981 80.902,44.969L80.737,45.207C87.343,49.905 87.761,67.724 87.764,67.903Z" fill="#2F2E41"/>
<path d="M84.179,67.834L84.466,67.828C84.46,67.506 84.28,59.922 81.333,57.825L81.168,58.063C83.997,60.075 84.177,67.756 84.179,67.834Z" fill="#2F2E41"/>
<path d="M79.105,45.233C79.897,45.233 80.54,44.583 80.54,43.781C80.54,42.978 79.897,42.328 79.105,42.328C78.313,42.328 77.671,42.978 77.671,43.781C77.671,44.583 78.313,45.233 79.105,45.233Z" fill="#FFEAD7"/>
<path d="M79.815,57.729C80.607,57.729 81.25,57.079 81.25,56.276C81.25,55.474 80.607,54.823 79.815,54.823C79.023,54.823 78.381,55.474 78.381,56.276C78.381,57.079 79.023,57.729 79.815,57.729Z" fill="#FFEAD7"/>
<path d="M84.847,46.105C84.577,47.849 85.28,49.409 85.28,49.409C85.28,49.409 86.419,48.141 86.689,46.397C86.959,44.653 86.256,43.093 86.256,43.093C86.256,43.093 85.116,44.36 84.847,46.105Z" fill="#2F2E41"/>
<path d="M80.159,50.34C81.807,50.913 83.446,50.484 83.446,50.484C83.446,50.484 82.412,49.127 80.764,48.554C79.115,47.981 77.477,48.41 77.477,48.41C77.477,48.41 78.51,49.768 80.159,50.34Z" fill="#2F2E41"/>
<path d="M80.106,61.407C80.852,61.644 81.646,61.679 82.41,61.508C81.925,60.882 81.272,60.412 80.53,60.154C79.787,59.896 78.987,59.861 78.226,60.054C78.725,60.664 79.373,61.13 80.106,61.407Z" fill="#2F2E41"/>
<path d="M46.631,22.55L37.383,17.679C37.383,17.679 34.278,14.214 32.328,12.65C30.377,11.085 29.777,12.234 29.777,12.234L28.957,13.618L30.938,16.41L36.29,21.001L45.853,24.795C46.003,25.043 46.219,25.243 46.476,25.372C46.733,25.5 47.021,25.553 47.307,25.522C47.592,25.491 47.863,25.379 48.088,25.199C48.313,25.019 48.483,24.777 48.578,24.503C48.673,24.229 48.689,23.933 48.625,23.65C48.561,23.366 48.418,23.107 48.214,22.903C48.011,22.698 47.754,22.557 47.473,22.494C47.193,22.432 46.901,22.451 46.631,22.55Z" fill="#9F616A"/>
<path d="M22.577,18.337L22.029,14.944L20.484,14.552C20.484,14.552 19.257,14.17 18.97,16.673C18.683,19.177 18.905,23.851 18.905,23.851L15.767,33.919C15.505,34.042 15.284,34.238 15.129,34.483C14.973,34.729 14.89,35.014 14.888,35.306C14.886,35.597 14.966,35.884 15.119,36.131C15.271,36.378 15.49,36.577 15.749,36.703C16.009,36.829 16.299,36.878 16.585,36.844C16.871,36.81 17.141,36.695 17.365,36.511C17.589,36.327 17.756,36.083 17.848,35.806C17.94,35.53 17.952,35.233 17.884,34.949L21.997,25.417L22.577,18.337Z" fill="#9F616A"/>
<path d="M35.364,65.953L37.387,65.953L38.349,58.049L35.363,58.049L35.364,65.953Z" fill="#9F616A"/>
<path d="M34.848,65.284L38.832,65.284L38.832,65.284C39.505,65.284 40.151,65.555 40.627,66.037C41.103,66.52 41.371,67.174 41.371,67.856L41.371,67.94L34.848,67.94L34.848,65.284Z" fill="#2F2E41"/>
<path d="M13.299,65.953L15.322,65.953L16.284,58.049L13.299,58.049L13.299,65.953Z" fill="#9F616A"/>
<path d="M12.783,65.284L16.767,65.284L16.767,65.284C17.441,65.284 18.086,65.555 18.563,66.037C19.039,66.52 19.306,67.174 19.306,67.856L19.306,67.94L12.783,67.94L12.783,65.284Z" fill="#2F2E41"/>
<path d="M23.286,11.559L19.931,14.461L22.684,23.288L23.306,25.259C23.306,25.259 19.512,28.803 17.164,38.701C14.817,48.6 10.977,61.752 10.977,61.752L19.083,64.103L25.677,41.711L33.434,59.278L34.33,64.474L41.233,62.412L39.604,49.381L31.463,26.825L32.309,20.846C32.309,20.846 33.579,17.861 31.372,14.701L30.68,11.732L28.201,11.114L23.286,11.559Z" fill="#2F2E41"/>
<path d="M28.861,9.982L19.789,9.982C19.602,9.982 19.423,9.906 19.291,9.773C19.159,9.639 19.085,9.458 19.085,9.269L19.085,5.308C19.085,3.9 19.637,2.55 20.62,1.555C21.602,0.559 22.935,0 24.325,0C25.714,0 27.047,0.559 28.03,1.555C29.012,2.55 29.564,3.9 29.564,5.308L29.564,9.269C29.564,9.458 29.49,9.639 29.358,9.773C29.226,9.906 29.047,9.982 28.861,9.982Z" fill="#2F2E41"/>
<path d="M25.401,9.851C27.544,9.851 29.281,8.126 29.281,5.998C29.281,3.87 27.544,2.145 25.401,2.145C23.258,2.145 21.521,3.87 21.521,5.998C21.521,8.126 23.258,9.851 25.401,9.851Z" transform="rotate(-123.293 25.401 5.998)" fill="#9F616A"/>
<path d="M30.804,5.704L25.257,5.704L25.2,4.897L24.916,5.704L24.062,5.704L23.949,4.105L23.385,5.704L21.732,5.704L21.732,5.625C21.734,4.511 22.171,3.444 22.948,2.657C23.725,1.87 24.778,1.427 25.877,1.426L26.659,1.426C27.758,1.427 28.812,1.87 29.589,2.657C30.366,3.444 30.803,4.511 30.804,5.625L30.804,5.704Z" fill="#2F2E41"/>
<path d="M25.211,10.721C25.169,10.721 25.127,10.717 25.086,10.71L21.024,9.984L21.024,3.184L25.496,3.184L25.385,3.314C23.845,5.134 25.005,8.085 25.834,9.681C25.895,9.798 25.922,9.93 25.913,10.062C25.903,10.194 25.856,10.321 25.779,10.427C25.714,10.518 25.629,10.592 25.53,10.643C25.431,10.694 25.322,10.721 25.211,10.721Z" fill="#2F2E41"/>
<path d="M58.802,46.371L23.204,59.121C22.324,59.435 21.356,59.383 20.514,58.975C19.672,58.568 19.024,57.839 18.712,56.948L12.597,39.427C12.287,38.536 12.338,37.556 12.741,36.703C13.143,35.85 13.862,35.193 14.742,34.877L50.34,22.127C51.22,21.813 52.188,21.866 53.03,22.273C53.872,22.681 54.52,23.41 54.832,24.301L60.947,41.821C61.257,42.713 61.206,43.693 60.803,44.546C60.401,45.399 59.682,46.055 58.802,46.371Z" fill="#FFFFFF"/>
<path d="M60.948,41.822L60.98,41.914C61.277,42.766 61.228,43.702 60.844,44.517C60.459,45.332 59.771,45.958 58.931,46.259L23.154,59.073C22.314,59.373 21.39,59.324 20.586,58.935C19.781,58.546 19.163,57.849 18.865,56.998L18.833,56.905L60.948,41.822Z" fill="#F2F2F2"/>
<path d="M20.982,38.945C18.623,40.518 15.599,39.334 14.541,37.61L14.71,37.513C16.718,36.245 19.702,36.951 20.982,38.945Z" fill="#FFEAD7"/>
<path d="M50.552,43.407C49.975,43.614 49.455,43.605 49.007,43.379C47.994,42.869 47.518,41.357 47.136,40.143C47.025,39.789 46.92,39.455 46.813,39.183L46.812,39.178C46.626,38.637 46.658,38.043 46.902,37.526C47.146,37.009 47.581,36.61 48.113,36.416L52.901,34.701C53.478,34.494 53.998,34.504 54.446,34.729C55.458,35.238 55.934,36.75 56.317,37.964C56.428,38.318 56.533,38.653 56.641,38.926C56.828,39.468 56.796,40.062 56.552,40.581C56.309,41.099 55.873,41.499 55.34,41.693L50.552,43.407ZM47.012,39.105C47.122,39.384 47.227,39.721 47.339,40.077C47.709,41.253 48.169,42.716 49.102,43.186C49.502,43.387 49.953,43.393 50.481,43.204L55.268,41.489C55.748,41.315 56.14,40.955 56.359,40.49C56.579,40.024 56.608,39.489 56.441,39.002C56.332,38.726 56.226,38.388 56.113,38.03C55.743,36.854 55.283,35.391 54.351,34.923C53.951,34.722 53.5,34.716 52.973,34.905L48.185,36.62C47.706,36.794 47.314,37.153 47.095,37.618C46.875,38.084 46.846,38.618 47.012,39.105Z" fill="#3F3D56"/>
<path d="M19.991,39.511C19.149,39.807 18.243,39.857 17.374,39.657C16.106,39.375 14.956,38.608 14.371,37.656L14.313,37.56L14.576,37.409C16.615,36.122 19.672,36.819 20.992,38.874L21.05,38.964L20.961,39.023C20.659,39.225 20.333,39.389 19.991,39.511ZM14.613,37.636C15.185,38.497 16.249,39.185 17.42,39.446C18.559,39.715 19.756,39.52 20.754,38.901C19.463,37.009 16.602,36.382 14.687,37.593L14.613,37.636Z" fill="#3F3D56"/>
<path d="M21.241,52.087C20.942,52.207 20.617,52.242 20.299,52.188C19.982,52.135 19.685,51.995 19.441,51.784C19.154,51.53 18.937,51.207 18.81,50.843C18.684,50.48 18.651,50.09 18.716,49.71C18.777,49.384 18.926,49.081 19.146,48.834C19.366,48.588 19.649,48.408 19.964,48.315L26.344,46.03C26.647,45.903 26.978,45.863 27.302,45.915C27.626,45.966 27.929,46.108 28.179,46.323C28.465,46.576 28.682,46.9 28.809,47.263C28.935,47.627 28.968,48.017 28.902,48.396C28.776,49.063 28.332,49.554 27.654,49.79L21.274,52.075C21.263,52.079 21.252,52.083 21.241,52.087ZM20.004,48.53C19.732,48.615 19.487,48.774 19.297,48.989C19.108,49.204 18.979,49.467 18.926,49.751C18.867,50.093 18.896,50.444 19.011,50.772C19.125,51.099 19.321,51.391 19.579,51.619C19.8,51.809 20.068,51.933 20.355,51.977C20.642,52.022 20.935,51.985 21.202,51.871L27.585,49.585C27.864,49.504 28.115,49.346 28.31,49.129C28.506,48.912 28.638,48.644 28.693,48.356C28.752,48.014 28.723,47.662 28.609,47.335C28.494,47.008 28.299,46.716 28.041,46.488C27.82,46.298 27.551,46.174 27.264,46.129C26.977,46.084 26.684,46.12 26.417,46.233L20.033,48.52C20.023,48.523 20.013,48.526 20.004,48.53Z" fill="#3F3D56"/>
<path d="M50.595,38.252L48.584,38.973C48.451,39.02 48.304,39.013 48.177,38.951C48.049,38.889 47.951,38.778 47.904,38.643C47.856,38.508 47.864,38.36 47.925,38.23C47.986,38.101 48.095,38.002 48.229,37.954L50.24,37.234C50.373,37.186 50.52,37.194 50.647,37.255C50.775,37.317 50.873,37.428 50.92,37.563C50.968,37.698 50.96,37.847 50.899,37.976C50.838,38.105 50.729,38.205 50.595,38.252Z" fill="#FFEAD7"/>
<path d="M51.164,39.882L49.152,40.603C49.019,40.65 48.873,40.642 48.745,40.581C48.617,40.519 48.519,40.408 48.472,40.273C48.425,40.138 48.433,39.99 48.493,39.86C48.554,39.731 48.664,39.632 48.797,39.584L50.808,38.864C50.942,38.816 51.088,38.824 51.216,38.885C51.343,38.947 51.442,39.058 51.489,39.193C51.536,39.328 51.528,39.476 51.467,39.606C51.406,39.735 51.297,39.834 51.164,39.882Z" fill="#FFEAD7"/>
<path d="M51.733,41.512L49.722,42.232C49.656,42.256 49.586,42.266 49.516,42.262C49.446,42.259 49.377,42.241 49.314,42.21C49.251,42.18 49.194,42.137 49.148,42.084C49.101,42.031 49.065,41.97 49.041,41.903C49.018,41.836 49.008,41.765 49.011,41.694C49.015,41.624 49.033,41.554 49.063,41.49C49.093,41.426 49.135,41.369 49.187,41.321C49.239,41.274 49.3,41.237 49.366,41.214L51.377,40.493C51.444,40.47 51.513,40.459 51.583,40.463C51.653,40.467 51.722,40.485 51.785,40.515C51.848,40.546 51.905,40.589 51.952,40.641C51.999,40.694 52.035,40.756 52.058,40.823C52.081,40.889 52.092,40.96 52.088,41.031C52.084,41.102 52.067,41.171 52.036,41.235C52.006,41.299 51.964,41.357 51.912,41.404C51.86,41.452 51.799,41.488 51.733,41.512Z" fill="#FFEAD7"/>
<path d="M54.115,36.992L52.104,37.712C52.038,37.736 51.968,37.746 51.898,37.742C51.828,37.738 51.759,37.721 51.696,37.69C51.633,37.66 51.576,37.617 51.529,37.564C51.483,37.511 51.446,37.45 51.423,37.383C51.4,37.316 51.39,37.245 51.393,37.174C51.397,37.103 51.414,37.034 51.445,36.97C51.475,36.906 51.517,36.848 51.569,36.801C51.621,36.754 51.682,36.717 51.748,36.693L53.759,35.973C53.893,35.925 54.039,35.933 54.167,35.995C54.295,36.057 54.393,36.167 54.44,36.302C54.487,36.437 54.479,36.586 54.418,36.715C54.357,36.844 54.248,36.944 54.115,36.992Z" fill="#FFEAD7"/>
<path d="M54.683,38.622L52.672,39.342C52.606,39.366 52.536,39.376 52.466,39.372C52.396,39.368 52.328,39.351 52.264,39.32C52.201,39.289 52.145,39.247 52.098,39.194C52.051,39.141 52.015,39.08 51.991,39.013C51.968,38.946 51.958,38.875 51.962,38.804C51.965,38.733 51.983,38.664 52.013,38.6C52.043,38.536 52.086,38.478 52.138,38.431C52.19,38.383 52.25,38.347 52.316,38.323L54.328,37.603C54.394,37.579 54.464,37.569 54.534,37.573C54.604,37.577 54.672,37.594 54.735,37.625C54.798,37.655 54.855,37.698 54.902,37.751C54.949,37.804 54.985,37.865 55.008,37.932C55.032,37.999 55.042,38.07 55.038,38.141C55.034,38.212 55.017,38.281 54.987,38.345C54.956,38.409 54.914,38.466 54.862,38.514C54.81,38.561 54.749,38.598 54.683,38.622Z" fill="#FFEAD7"/>
<path d="M55.253,40.251L53.241,40.972C53.108,41.02 52.961,41.012 52.834,40.95C52.706,40.888 52.608,40.778 52.561,40.643C52.514,40.507 52.521,40.359 52.582,40.23C52.643,40.1 52.752,40.001 52.886,39.953L54.897,39.233C54.963,39.209 55.033,39.199 55.103,39.203C55.173,39.206 55.241,39.224 55.305,39.255C55.368,39.285 55.424,39.328 55.471,39.381C55.518,39.434 55.554,39.495 55.578,39.562C55.601,39.629 55.611,39.7 55.607,39.771C55.604,39.842 55.586,39.911 55.556,39.975C55.526,40.039 55.483,40.096 55.431,40.144C55.379,40.191 55.319,40.228 55.253,40.251Z" fill="#FFEAD7"/>
<path d="M57.509,35.65L12.775,35.65L12.775,35.866L57.509,35.866L57.509,35.65Z" transform="rotate(-39.41 35.142 35.758)" fill="#3F3D56"/>
<path d="M58.802,46.371L23.204,59.121C22.324,59.435 21.356,59.383 20.514,58.975C19.672,58.568 19.024,57.839 18.712,56.948L12.597,39.427C12.287,38.536 12.338,37.556 12.741,36.703C13.143,35.85 13.862,35.193 14.742,34.877L50.34,22.127C51.22,21.813 52.188,21.866 53.03,22.273C53.872,22.681 54.52,23.41 54.832,24.301L60.947,41.821C61.257,42.713 61.206,43.693 60.803,44.546C60.401,45.399 59.682,46.055 58.802,46.371ZM14.813,35.081C13.987,35.378 13.311,35.995 12.933,36.796C12.555,37.597 12.507,38.518 12.798,39.355L18.913,56.876C19.206,57.713 19.815,58.398 20.606,58.78C21.397,59.163 22.306,59.212 23.133,58.917L58.731,46.168C59.557,45.871 60.233,45.254 60.611,44.453C60.989,43.651 61.037,42.731 60.746,41.894L54.631,24.373C54.338,23.536 53.729,22.851 52.938,22.468C52.147,22.085 51.238,22.036 50.411,22.331L14.813,35.081Z" fill="#3F3D56"/>
<path d="M105.857,68L0.143,68C0.105,68 0.069,67.985 0.042,67.957C0.015,67.93 0,67.893 0,67.855C0,67.816 0.015,67.779 0.042,67.752C0.069,67.725 0.105,67.709 0.143,67.709L105.857,67.709C105.895,67.709 105.931,67.725 105.958,67.752C105.985,67.779 106,67.816 106,67.855C106,67.893 105.985,67.93 105.958,67.957C105.931,67.985 105.895,68 105.857,68Z" fill="#CBCBCB"/>
</svg>
