<svg width="220" height="158" viewBox="0 0 220 158" fill="none" xmlns="http://www.w3.org/2000/svg" xmlns:xlink="http://www.w3.org/1999/xlink">
<path d="M219.697,158L128.276,158C128.196,158 128.119,157.968 128.062,157.911C128.005,157.854 127.973,157.776 127.973,157.696C127.973,157.615 128.005,157.537 128.062,157.48C128.119,157.423 128.196,157.391 128.276,157.391L219.697,157.391C219.777,157.391 219.855,157.423 219.911,157.48C219.968,157.537 220,157.615 220,157.696C220,157.776 219.968,157.854 219.911,157.911C219.855,157.968 219.777,158 219.697,158Z" fill="#3F3D56"/>
<path d="M162.618,154.514L158.895,154.514L157.123,140.118L162.619,140.118L162.618,154.514Z" fill="#FFB8B8"/>
<path d="M156.235,153.447L163.417,153.447L163.417,157.979L151.714,157.979C151.714,157.384 151.831,156.795 152.058,156.245C152.285,155.695 152.618,155.196 153.038,154.775C153.458,154.354 153.956,154.02 154.505,153.792C155.054,153.564 155.642,153.447 156.235,153.447Z" fill="#2F2E41"/>
<path d="M189.636,150.286L186.249,151.836L178.67,139.48L183.669,137.191L189.636,150.286Z" fill="#FFB8B8"/>
<path d="M184.207,151.217L191.391,151.217L191.391,155.747L179.683,155.747C179.683,155.152 179.8,154.563 180.028,154.013C180.255,153.464 180.588,152.964 181.008,152.543C181.428,152.123 181.927,151.789 182.476,151.561C183.024,151.334 183.613,151.217 184.207,151.217Z" transform="rotate(-49.198 185.537 153.482)" fill="#2F2E41"/>
<path d="M178.792,105.974C179.149,105.705 179.443,105.361 179.652,104.966C179.862,104.571 179.983,104.134 180.006,103.687C180.029,103.24 179.954,102.794 179.787,102.379C179.619,101.964 179.363,101.591 179.036,101.286L183.413,91.332L177.852,92.276L174.548,101.585C174.074,102.169 173.83,102.908 173.862,103.661C173.895,104.413 174.202,105.128 174.725,105.669C175.248,106.21 175.951,106.54 176.701,106.596C177.451,106.653 178.195,106.431 178.792,105.974Z" fill="#FFB8B8"/>
<path d="M162.381,150.718L158.824,150.718C158.479,150.716 158.147,150.585 157.895,150.35C157.642,150.114 157.487,149.792 157.461,149.447L153.699,97.524C153.684,97.325 153.714,97.125 153.784,96.938C153.855,96.752 153.965,96.583 154.108,96.444C154.25,96.304 154.421,96.198 154.609,96.132C154.797,96.066 154.997,96.042 155.195,96.061L177.59,98.251C177.923,98.284 178.233,98.438 178.461,98.684C178.688,98.931 178.817,99.253 178.824,99.588L179.255,122.492C179.257,122.617 179.281,122.74 179.326,122.856L187.765,144.791C187.83,144.96 187.861,145.141 187.856,145.323C187.851,145.504 187.809,145.683 187.735,145.848C187.66,146.014 187.553,146.163 187.421,146.286C187.288,146.41 187.132,146.506 186.962,146.569L183.357,147.9C183.044,148.016 182.7,148.013 182.389,147.891C182.078,147.77 181.822,147.539 181.669,147.241L171.302,127.037C171.246,126.927 171.205,126.81 171.18,126.689L169.409,118.136C169.357,117.888 169.22,117.667 169.02,117.511C168.821,117.356 168.572,117.277 168.32,117.288C168.067,117.3 167.827,117.401 167.643,117.574C167.458,117.746 167.341,117.98 167.312,118.231L163.739,149.503C163.701,149.838 163.542,150.146 163.291,150.37C163.041,150.594 162.717,150.718 162.381,150.718Z" fill="#2F2E41"/>
<path d="M164.152,56.925C168.272,56.925 171.612,53.577 171.612,49.448C171.612,45.318 168.272,41.97 164.152,41.97C160.032,41.97 156.692,45.318 156.692,49.448C156.692,53.577 160.032,56.925 164.152,56.925Z" fill="#FFB8B8"/>
<path d="M155.118,97.824C156.073,98.484 166.832,105.59 179.095,99.938C178.936,98.566 177.406,84.784 178.742,74.624C179.376,69.804 177.461,65.338 173.488,62.372C171.33,60.769 168.785,59.771 166.115,59.482C163.444,59.193 160.745,59.623 158.296,60.727C158.095,60.818 157.892,60.912 157.688,61.01L155.118,97.824Z" fill="#FF992D"/>
<path d="M179.211,99.825C179.022,99.825 178.834,99.785 178.661,99.709C178.488,99.632 178.333,99.52 178.205,99.38L176.573,97.596C176.415,97.421 176.303,97.209 176.25,96.979C176.197,96.749 176.204,96.509 176.27,96.282L180.007,83.603L174.321,71.634C174.072,71.108 174.011,70.512 174.148,69.946C174.269,69.449 174.538,69.001 174.918,68.66C175.299,68.319 175.774,68.102 176.28,68.037C176.786,67.973 177.3,68.063 177.753,68.297C178.207,68.531 178.58,68.897 178.821,69.347L186.508,81.85C186.808,82.335 186.983,82.887 187.02,83.457C187.056,84.026 186.953,84.596 186.718,85.116L180.458,99.018C180.365,99.225 180.223,99.405 180.043,99.543C179.863,99.681 179.652,99.771 179.429,99.807C179.357,99.819 179.284,99.825 179.211,99.825Z" fill="#FF2E2C"/>
<g opacity="0.2">
<path d="M160.638,98.203L157.658,98.203L162.86,73.665L163.161,73.704L162.003,96.902C161.986,97.253 161.835,97.584 161.581,97.826C161.327,98.069 160.989,98.204 160.638,98.203Z" fill="#000000"/>
</g>
<path d="M157.881,104.304C158.174,103.966 158.39,103.569 158.513,103.138C158.636,102.708 158.664,102.256 158.594,101.814C158.524,101.372 158.359,100.951 158.109,100.58C157.859,100.209 157.531,99.898 157.148,99.668L159.367,89.019L154.124,91.1L152.82,100.893C152.477,101.564 152.391,102.337 152.579,103.067C152.767,103.796 153.215,104.431 153.839,104.852C154.463,105.272 155.219,105.449 155.964,105.348C156.709,105.247 157.391,104.875 157.881,104.304Z" fill="#FFB8B8"/>
<path d="M157.58,98.234C157.529,98.234 157.477,98.231 157.426,98.225L154.248,97.871C153.904,97.832 153.588,97.664 153.363,97.401C153.138,97.138 153.02,96.799 153.033,96.453L154.348,64.554C154.39,63.554 154.793,62.602 155.483,61.879C156.174,61.155 157.104,60.708 158.099,60.621C159.094,60.535 160.087,60.815 160.891,61.409C161.695,62.003 162.256,62.871 162.468,63.849L163.315,67.755L163.311,67.783L158.929,97.067C158.881,97.391 158.719,97.688 158.471,97.902C158.224,98.116 157.908,98.234 157.58,98.234Z" fill="#FF2E2C"/>
<path d="M170.298,56.04C169.525,56.173 168.888,55.093 168.792,54.334C168.696,53.575 168.972,52.848 169.002,52.094C169.032,51.34 168.677,50.423 167.896,50.2C167.076,49.965 166.317,50.624 165.478,50.545C164.309,50.434 163.723,49.064 163.581,47.955C163.439,46.846 163.328,45.532 162.316,44.9C161.307,44.269 160.059,44.728 158.899,44.748C156.94,44.781 154.945,43.283 154.487,41.435C154.725,41.503 154.979,41.491 155.208,41.399C155.438,41.306 155.631,41.14 155.755,40.926C155.853,40.697 155.873,40.443 155.812,40.202C155.751,39.961 155.612,39.747 155.417,39.593L157.638,40.683C157.334,40.064 157.793,39.359 158.424,39.124C159.055,38.89 159.789,38.995 160.485,39.103C163.963,39.645 167.991,39.378 170.298,42.036C171.896,43.877 173.211,47.38 173.032,49.647C172.852,51.913 170.298,56.04 170.298,56.04Z" fill="#2F2E41"/>
<path d="M85.65,140.343L5.771,140.343C5.207,140.342 4.667,140.118 4.268,139.718C3.869,139.319 3.645,138.777 3.645,138.212L0,2.139C-0.001,1.859 0.054,1.581 0.161,1.322C0.267,1.063 0.424,0.827 0.621,0.628C0.818,0.43 1.053,0.272 1.311,0.164C1.569,0.056 1.846,0.001 2.126,0L82.005,0C82.569,0.001 83.109,0.225 83.508,0.625C83.906,1.024 84.13,1.566 84.131,2.131L84.791,26.782L84.184,26.798L83.524,2.139C83.524,1.939 83.485,1.74 83.409,1.555C83.333,1.369 83.222,1.201 83.081,1.059C82.94,0.916 82.772,0.804 82.587,0.726C82.403,0.649 82.205,0.609 82.005,0.609L2.126,0.609C1.723,0.609 1.337,0.77 1.053,1.055C0.768,1.341 0.608,1.727 0.607,2.131L4.252,138.204C4.251,138.404 4.29,138.603 4.366,138.788C4.442,138.974 4.554,139.142 4.695,139.284C4.836,139.426 5.004,139.539 5.188,139.617C5.373,139.694 5.571,139.734 5.771,139.734L85.65,139.734C86.052,139.734 86.438,139.573 86.723,139.288C87.008,139.002 87.168,138.616 87.168,138.212L86.459,111.735L87.066,111.718L87.776,138.204C87.776,138.484 87.722,138.762 87.615,139.021C87.508,139.28 87.352,139.516 87.155,139.715C86.957,139.913 86.723,140.071 86.464,140.179C86.206,140.287 85.929,140.342 85.65,140.343Z" fill="#8B8B8B" stroke="#000000" stroke-width="1" stroke-miterlimit="3.999327"/>
<path d="M85.926,63.32L85.318,63.32L85.318,75.01L85.926,75.01L85.926,63.32Z" transform="rotate(-3.083 85.622 69.165)" fill="#CCCCCC" stroke="#000000" stroke-width="1" stroke-miterlimit="3.999327"/>
<path d="M78.481,128.351L12.313,128.351C11.832,128.351 11.371,128.159 11.031,127.818C10.691,127.477 10.5,127.015 10.499,126.534L7.48,13.817C7.48,13.578 7.526,13.341 7.617,13.12C7.708,12.899 7.841,12.698 8.01,12.528C8.178,12.359 8.378,12.224 8.598,12.132C8.819,12.04 9.055,11.992 9.294,11.992L75.462,11.992C75.943,11.992 76.404,12.184 76.744,12.525C77.084,12.865 77.275,13.327 77.276,13.809L77.822,26.777L77.215,26.803L76.668,13.822C76.669,13.662 76.639,13.504 76.579,13.356C76.519,13.208 76.43,13.074 76.318,12.96C76.206,12.847 76.073,12.757 75.926,12.695C75.779,12.633 75.622,12.601 75.462,12.601L9.294,12.601C8.974,12.601 8.667,12.728 8.441,12.955C8.215,13.182 8.088,13.489 8.088,13.809L11.107,126.525C11.106,126.685 11.137,126.843 11.197,126.99C11.257,127.137 11.346,127.271 11.458,127.384C11.57,127.497 11.703,127.587 11.85,127.649C11.997,127.71 12.154,127.742 12.313,127.742L78.481,127.742C78.801,127.742 79.108,127.614 79.334,127.388C79.56,127.161 79.687,126.854 79.687,126.534L79.296,111.734L79.903,111.718L80.295,126.526C80.295,126.765 80.249,127.002 80.158,127.223C80.067,127.444 79.934,127.645 79.765,127.815C79.597,127.984 79.397,128.119 79.177,128.211C78.956,128.303 78.72,128.351 78.481,128.351Z" fill="#8B8B8B" stroke="#000000" stroke-width="1" stroke-miterlimit="3.999327"/>
<path d="M78.787,63.624L78.179,63.624L78.179,75.197L78.787,75.197L78.787,63.624Z" transform="rotate(-3.04 78.483 69.41)" fill="#CCCCCC" stroke="#000000" stroke-width="1" stroke-miterlimit="3.999327"/>
<path d="M96.089,63.626L18.64,63.626C18.079,63.626 17.541,63.403 17.143,63.008C16.745,62.612 16.519,62.075 16.514,61.513L15.299,28.617C15.299,28.052 15.524,27.51 15.922,27.11C16.321,26.711 16.861,26.486 17.425,26.486L94.874,26.486C95.435,26.486 95.972,26.709 96.37,27.104C96.769,27.5 96.995,28.037 97,28.599L98.215,61.495C98.214,62.06 97.99,62.602 97.592,63.001C97.193,63.401 96.653,63.626 96.089,63.626ZM15.906,28.601L17.121,61.495C17.122,61.899 17.282,62.286 17.566,62.571C17.851,62.856 18.237,63.017 18.64,63.017L96.089,63.017C96.489,63.017 96.872,62.859 97.157,62.577C97.441,62.295 97.603,61.912 97.607,61.511L96.393,28.617C96.392,28.213 96.232,27.826 95.947,27.541C95.663,27.255 95.277,27.095 94.874,27.094L17.425,27.094C17.025,27.095 16.641,27.253 16.357,27.535C16.073,27.817 15.911,28.2 15.906,28.601Z" fill="#3F3D56"/>
<path d="M110.667,112.031L33.218,112.031C32.657,112.03 32.119,111.808 31.721,111.412C31.323,111.016 31.097,110.479 31.092,109.917L29.877,77.021C29.878,76.456 30.102,75.915 30.5,75.515C30.899,75.115 31.439,74.891 32.003,74.89L109.452,74.89C110.013,74.891 110.551,75.113 110.949,75.509C111.347,75.905 111.573,76.442 111.578,77.004L112.793,109.9C112.793,110.465 112.568,111.006 112.17,111.406C111.771,111.806 111.231,112.03 110.667,112.031ZM30.484,77.005L31.699,109.9C31.7,110.303 31.86,110.69 32.145,110.976C32.429,111.261 32.815,111.422 33.218,111.422L110.667,111.422C111.067,111.422 111.451,111.263 111.735,110.981C112.019,110.699 112.181,110.317 112.186,109.916L110.971,77.021C110.97,76.618 110.81,76.231 110.526,75.945C110.241,75.66 109.855,75.499 109.452,75.499L32.003,75.499C31.603,75.499 31.22,75.658 30.935,75.94C30.651,76.222 30.489,76.604 30.484,77.005Z" fill="#3F3D56"/>
<path d="M51.593,82.044C51.07,82.044 50.568,82.253 50.197,82.624C49.827,82.995 49.619,83.498 49.619,84.023C49.619,84.548 49.827,85.051 50.197,85.422C50.568,85.794 51.07,86.002 51.593,86.002L91.077,86.002C91.601,86.002 92.103,85.794 92.473,85.422C92.843,85.051 93.051,84.548 93.051,84.023C93.051,83.498 92.843,82.995 92.473,82.624C92.103,82.253 91.601,82.044 91.077,82.044L51.593,82.044Z" fill="#FFEAD7"/>
<path d="M51.593,91.482C51.07,91.482 50.568,91.69 50.197,92.061C49.827,92.432 49.619,92.936 49.619,93.46C49.619,93.985 49.827,94.489 50.197,94.86C50.568,95.231 51.07,95.439 51.593,95.439L91.077,95.439C91.601,95.439 92.103,95.231 92.473,94.86C92.843,94.489 93.051,93.985 93.051,93.46C93.051,92.936 92.843,92.432 92.473,92.061C92.103,91.69 91.601,91.482 91.077,91.482L51.593,91.482Z" fill="#FFEAD7"/>
<path d="M51.593,100.919C51.07,100.919 50.568,101.128 50.197,101.499C49.827,101.87 49.619,102.373 49.619,102.898C49.619,103.423 49.827,103.926 50.197,104.297C50.568,104.668 51.07,104.877 51.593,104.877L91.077,104.877C91.601,104.877 92.103,104.668 92.473,104.297C92.843,103.926 93.051,103.423 93.051,102.898C93.051,102.373 92.843,101.87 92.473,101.499C92.103,101.128 91.601,100.919 91.077,100.919L51.593,100.919Z" fill="#FFEAD7"/>
<path d="M37.014,33.64C36.491,33.64 35.989,33.848 35.618,34.219C35.248,34.59 35.04,35.094 35.04,35.618C35.04,36.143 35.248,36.647 35.618,37.018C35.989,37.389 36.491,37.597 37.014,37.597L76.498,37.597C77.022,37.597 77.524,37.389 77.894,37.018C78.264,36.647 78.472,36.143 78.472,35.618C78.472,35.094 78.264,34.59 77.894,34.219C77.524,33.848 77.022,33.64 76.498,33.64L37.014,33.64Z" fill="#FFEAD7"/>
<path d="M37.014,43.077C36.491,43.077 35.989,43.286 35.618,43.657C35.248,44.028 35.04,44.531 35.04,45.056C35.04,45.581 35.248,46.084 35.618,46.455C35.989,46.826 36.491,47.035 37.014,47.035L76.498,47.035C77.022,47.035 77.524,46.826 77.894,46.455C78.264,46.084 78.472,45.581 78.472,45.056C78.472,44.531 78.264,44.028 77.894,43.657C77.524,43.286 77.022,43.077 76.498,43.077L37.014,43.077Z" fill="#FFEAD7"/>
<path d="M37.014,52.514C36.491,52.514 35.989,52.723 35.618,53.094C35.248,53.465 35.04,53.968 35.04,54.493C35.04,55.018 35.248,55.521 35.618,55.892C35.989,56.264 36.491,56.472 37.014,56.472L76.498,56.472C77.022,56.472 77.524,56.264 77.894,55.892C78.264,55.521 78.472,55.018 78.472,54.493C78.472,53.968 78.264,53.465 77.894,53.094C77.524,52.723 77.022,52.514 76.498,52.514L37.014,52.514Z" fill="#FFEAD7"/>
<path d="M42.633,9.133C44.31,9.133 45.67,7.77 45.67,6.089C45.67,4.407 44.31,3.044 42.633,3.044C40.956,3.044 39.596,4.407 39.596,6.089C39.596,7.77 40.956,9.133 42.633,9.133Z" fill="#8B8B8B"/>
</svg>
