<svg width="102" height="78" viewBox="0 0 102 78" fill="none" xmlns="http://www.w3.org/2000/svg" xmlns:xlink="http://www.w3.org/1999/xlink">
<path d="M40.815,16.175L40.443,16.175L40.443,5.93C40.443,5.151 40.29,4.38 39.994,3.661C39.697,2.941 39.263,2.287 38.715,1.737C38.167,1.186 37.517,0.749 36.801,0.451C36.085,0.153 35.318,0 34.543,0L12.947,0C11.382,0 9.881,0.625 8.775,1.737C7.668,2.849 7.047,4.357 7.047,5.93L7.047,62.138C7.047,62.916 7.199,63.688 7.496,64.407C7.792,65.126 8.227,65.78 8.775,66.331C9.323,66.881 9.973,67.318 10.689,67.616C11.405,67.914 12.172,68.068 12.947,68.068L34.543,68.068C36.108,68.068 37.608,67.443 38.715,66.331C39.821,65.219 40.443,63.71 40.443,62.138L40.443,23.468L40.815,23.468L40.815,16.175Z" fill="#3F3D56"/>
<path d="M34.781,1.543L31.962,1.543C32.092,1.862 32.141,2.209 32.106,2.552C32.071,2.895 31.953,3.224 31.761,3.511C31.57,3.797 31.311,4.032 31.008,4.194C30.705,4.356 30.367,4.441 30.024,4.441L17.652,4.441C17.309,4.441 16.971,4.356 16.668,4.194C16.365,4.032 16.106,3.797 15.915,3.511C15.723,3.224 15.605,2.895 15.57,2.552C15.535,2.209 15.584,1.862 15.714,1.543L13.081,1.543C12.502,1.543 11.929,1.657 11.395,1.88C10.86,2.102 10.374,2.429 9.965,2.84C9.556,3.251 9.232,3.739 9.01,4.276C8.789,4.814 8.675,5.39 8.675,5.971L8.675,62.097C8.675,62.678 8.789,63.254 9.01,63.791C9.232,64.328 9.556,64.817 9.965,65.228C10.374,65.639 10.86,65.965 11.395,66.188C11.929,66.41 12.502,66.525 13.081,66.525L34.781,66.525C35.36,66.525 35.933,66.41 36.467,66.188C37.002,65.965 37.488,65.639 37.897,65.228C38.306,64.817 38.63,64.329 38.852,63.791C39.073,63.254 39.187,62.678 39.187,62.097L39.187,5.971C39.187,5.39 39.073,4.814 38.852,4.276C38.63,3.739 38.306,3.251 37.897,2.84C37.488,2.429 37.002,2.102 36.467,1.88C35.933,1.657 35.36,1.543 34.781,1.543Z" fill="#FFFFFF"/>
<path d="M47.737,68.077L0.125,68.077C0.092,68.077 0.06,68.064 0.037,68.041C0.013,68.017 0,67.985 0,67.952C0,67.918 0.013,67.887 0.037,67.863C0.06,67.839 0.092,67.826 0.125,67.826L47.737,67.826C47.771,67.826 47.802,67.839 47.826,67.863C47.849,67.887 47.862,67.918 47.862,67.952C47.862,67.985 47.849,68.017 47.826,68.041C47.802,68.064 47.771,68.077 47.737,68.077Z" fill="#CBCBCB"/>
<path d="M23.931,43.419C29.759,43.419 34.484,38.67 34.484,32.812C34.484,26.954 29.759,22.205 23.931,22.205C18.103,22.205 13.378,26.954 13.378,32.812C13.378,38.67 18.103,43.419 23.931,43.419Z" fill="#FFEAD7"/>
<path d="M22.886,36.858C22.648,36.859 22.417,36.781 22.227,36.638L22.215,36.629L19.735,34.723C19.62,34.634 19.524,34.524 19.452,34.398C19.379,34.272 19.332,34.133 19.313,33.988C19.294,33.844 19.304,33.698 19.341,33.557C19.379,33.417 19.443,33.285 19.531,33.169C19.619,33.054 19.729,32.957 19.854,32.884C19.98,32.811 20.118,32.764 20.262,32.745C20.405,32.726 20.551,32.736 20.691,32.773C20.83,32.811 20.962,32.876 21.076,32.964L22.683,34.202L26.479,29.225C26.567,29.109 26.677,29.013 26.802,28.94C26.927,28.867 27.065,28.82 27.209,28.801C27.352,28.782 27.498,28.791 27.638,28.829C27.778,28.866 27.909,28.931 28.023,29.02L28.024,29.02L28,29.053L28.024,29.02C28.256,29.199 28.408,29.463 28.446,29.754C28.484,30.045 28.406,30.34 28.228,30.573L23.763,36.425C23.66,36.56 23.527,36.669 23.375,36.744C23.223,36.819 23.056,36.857 22.887,36.857L22.886,36.858Z" fill="#FFFFFF"/>
<path d="M86.757,69.12C86.886,68.911 87.037,68.718 87.208,68.543C87.278,68.469 87.353,68.4 87.43,68.332C87.896,67.915 88.465,67.63 89.077,67.507C89.69,67.384 90.324,67.427 90.915,67.631C91.505,67.836 92.031,68.195 92.437,68.672C92.844,69.148 93.117,69.725 93.228,70.343C93.744,68.427 92.402,66.54 91.053,65.091C89.704,63.642 88.161,62.052 88.169,60.067C88.173,58.962 88.71,57.976 89.522,57.246C89.547,57.224 89.572,57.202 89.598,57.18C90.579,56.335 91.841,55.893 93.133,55.942C95.532,56.071 97.627,57.692 99.082,59.614C101.423,62.708 102.45,67.05 100.81,70.571C99.368,73.668 96.293,75.507 93.154,76.985C92.716,77.192 92.278,77.392 91.842,77.586C91.839,77.587 91.836,77.589 91.833,77.59C91.812,77.599 91.791,77.608 91.771,77.618C91.681,77.658 91.591,77.698 91.502,77.737L91.543,77.764L91.672,77.848C91.627,77.821 91.583,77.795 91.538,77.767C91.525,77.759 91.511,77.751 91.498,77.743C89.956,76.814 88.393,75.83 87.328,74.379C86.224,72.872 85.78,70.713 86.757,69.12Z" fill="#F1F1F1"/>
<path d="M97.043,65.62C97.384,66.4 97.61,67.227 97.714,68.073C97.796,68.828 97.765,69.59 97.623,70.335C97.317,71.867 96.649,73.303 95.676,74.521C94.942,75.446 94.095,76.274 93.154,76.985C92.716,77.192 92.279,77.392 91.842,77.586C91.839,77.587 91.836,77.589 91.833,77.59C91.812,77.599 91.791,77.608 91.771,77.618C91.681,77.658 91.591,77.698 91.502,77.737L91.543,77.764L91.672,77.848C91.627,77.821 91.583,77.795 91.538,77.767C91.525,77.759 91.511,77.751 91.498,77.743C91.837,76.55 91.887,75.293 91.643,74.077C91.4,72.861 90.869,71.721 90.097,70.754C89.321,69.798 88.331,69.041 87.208,68.543C87.279,68.469 87.353,68.4 87.43,68.332C87.862,68.532 88.276,68.77 88.667,69.043C90.065,70.014 91.115,71.412 91.661,73.029C92.149,74.497 92.21,76.074 91.837,77.575C91.914,77.524 91.992,77.472 92.067,77.42C93.504,76.446 94.827,75.277 95.824,73.844C96.684,72.632 97.234,71.227 97.426,69.751C97.617,68.139 97.216,66.554 96.5,65.115C95.709,63.577 94.713,62.154 93.539,60.886C92.359,59.584 91.026,58.431 89.568,57.455C89.535,57.432 89.512,57.398 89.503,57.359C89.495,57.32 89.502,57.28 89.522,57.246C89.538,57.215 89.565,57.191 89.598,57.18C89.614,57.176 89.632,57.175 89.649,57.179C89.666,57.182 89.681,57.189 89.695,57.2C89.875,57.321 90.054,57.442 90.23,57.568C91.698,58.613 93.032,59.837 94.2,61.212C95.328,62.538 96.355,64.011 97.043,65.62Z" fill="#FFFFFF"/>
<path d="M65.613,4.925C66.851,4.925 67.854,3.917 67.854,2.673C67.854,1.428 66.851,0.42 65.613,0.42C64.375,0.42 63.372,1.428 63.372,2.673C63.372,3.917 64.375,4.925 65.613,4.925Z" fill="#F1F1F1"/>
<path d="M93.481,35.07C94.235,35.07 94.847,34.455 94.847,33.697C94.847,32.938 94.235,32.323 93.481,32.323C92.726,32.323 92.114,32.938 92.114,33.697C92.114,34.455 92.726,35.07 93.481,35.07Z" fill="#F1F1F1"/>
<path d="M53.491,38.838C54.246,38.838 54.858,38.223 54.858,37.465C54.858,36.706 54.246,36.091 53.491,36.091C52.737,36.091 52.125,36.706 52.125,37.465C52.125,38.223 52.737,38.838 53.491,38.838Z" fill="#F1F1F1"/>
<path d="M54.263,78L101.875,78C101.908,78 101.94,77.987 101.963,77.963C101.987,77.94 102,77.908 102,77.874C102,77.841 101.987,77.809 101.963,77.786C101.94,77.762 101.908,77.749 101.875,77.749L54.263,77.749C54.23,77.749 54.198,77.762 54.174,77.786C54.151,77.809 54.138,77.841 54.138,77.874C54.138,77.908 54.151,77.94 54.174,77.963C54.198,77.987 54.23,78 54.263,78Z" fill="#CBCBCB"/>
<path d="M96.621,12.138C96.684,11.692 96.581,11.238 96.333,10.863C96.085,10.487 95.709,10.217 95.275,10.102C94.842,9.987 94.381,10.036 93.981,10.239C93.581,10.442 93.27,10.786 93.105,11.205L89.241,15.657L90.375,18.839L94.26,13.637C94.514,13.719 94.782,13.744 95.046,13.71C95.31,13.676 95.564,13.585 95.789,13.442C96.014,13.299 96.205,13.108 96.349,12.882C96.493,12.657 96.586,12.403 96.621,12.138Z" fill="#FFB7B7"/>
<path d="M80.605,29.46L93.43,15.703L91.7,12.939L75.614,26.612L80.605,29.46Z" fill="#3F3D56"/>
<path d="M77.743,21.101C80.228,21.101 82.242,19.077 82.242,16.58C82.242,14.082 80.228,12.058 77.743,12.058C75.258,12.058 73.244,14.082 73.244,16.58C73.244,19.077 75.258,21.101 77.743,21.101Z" fill="#2F2E41"/>
<path d="M78.104,14.025C79.073,13.039 80.244,12.277 81.536,11.795C82.366,11.486 83.269,11.295 84.136,11.47C85.004,11.646 85.824,12.249 86.066,13.104C86.264,13.804 86.06,14.557 85.752,15.215C85.445,15.874 85.035,16.484 84.787,17.167C84.534,17.864 84.458,18.613 84.565,19.347C84.673,20.081 84.962,20.776 85.405,21.37C85.848,21.963 86.431,22.436 87.102,22.745C87.773,23.055 88.511,23.191 89.247,23.141C88.395,23.256 87.609,23.658 86.776,23.873C85.943,24.087 84.96,24.072 84.341,23.473C83.686,22.838 83.673,21.806 83.705,20.892C83.752,19.534 83.799,18.176 83.846,16.817C83.87,16.124 83.891,15.409 83.642,14.763C83.393,14.116 82.803,13.55 82.113,13.556C81.59,13.56 81.128,13.879 80.709,14.192C80.289,14.506 79.846,14.841 79.325,14.888C78.805,14.935 78.21,14.547 78.249,14.023L78.104,14.025Z" fill="#2F2E41"/>
<path d="M60.656,46.941C60.224,47.062 59.763,47.019 59.361,46.821C58.958,46.623 58.642,46.283 58.472,45.866C58.302,45.449 58.29,44.984 58.438,44.559C58.586,44.134 58.885,43.778 59.277,43.559L63.163,39.127L66.45,39.841L61.827,44.393C61.941,44.635 62,44.899 62.001,45.167C62.002,45.434 61.945,45.699 61.833,45.942C61.722,46.185 61.559,46.4 61.355,46.573C61.152,46.745 60.913,46.871 60.656,46.941Z" fill="#FFB7B7"/>
<path d="M73.443,31.075L63.756,43.296L60.804,41.934L72.189,24.117L73.443,31.075Z" fill="#3F3D56"/>
<path d="M65.714,67.978L63.405,67.942L63.683,75.85L65.714,75.85L65.714,67.978Z" fill="#FFB7B7"/>
<path d="M66.231,75.184L62.232,75.184L62.232,75.184C61.556,75.184 60.908,75.454 60.43,75.934C59.952,76.415 59.684,77.066 59.684,77.746L59.684,77.829L66.231,77.829L66.231,75.184Z" fill="#2F2E41"/>
<path d="M80.999,65.881L78.478,67.508L83.522,73.608L85.231,72.505L80.999,65.881Z" fill="#FFB7B7"/>
<path d="M85.308,71.663L81.943,73.835L81.943,73.835C81.374,74.202 80.974,74.781 80.83,75.445C80.686,76.108 80.81,76.802 81.175,77.374L81.22,77.444L86.73,73.889L85.308,71.663Z" fill="#2F2E41"/>
<path d="M81.898,41.731C81.898,41.731 76.294,23.025 74.494,22.772C72.693,22.519 69.791,27.572 69.791,27.572C66.029,32.396 62.15,48.023 62.15,48.023C62.15,48.023 68.617,48.43 73.344,50.957C78.071,53.485 83.65,50.829 83.65,50.829L81.898,41.731Z" fill="#3F3D56"/>
<g opacity="0.1">
<path d="M81.898,41.731C81.898,41.731 76.294,23.025 74.494,22.772C72.693,22.519 70.528,27.623 70.528,27.623C68.654,35.41 62.15,48.023 62.15,48.023C62.15,48.023 68.617,48.429 73.344,50.957C78.071,53.485 83.65,50.829 83.65,50.829L81.898,41.731Z" fill="#000000"/>
</g>
<path d="M77.301,36.134L77.301,45.533L78.401,59.149L83.9,69.449L81.275,71.333L73.777,61.536L70.812,51.808L66.154,73.343L62.655,73.091L65.085,43.234L69.697,34.83L77.301,36.134Z" fill="#2F2E41"/>
<path d="M71.651,27.043C69.901,28.801 71.526,30.685 71.526,30.685L69.526,35.207L77.399,37.342L80.151,24.985L78.276,22.976C74.527,22.85 74.525,22.772 74.525,22.772C73.868,23.418 71.651,27.043 71.651,27.043Z" fill="#FFEAD7"/>
<path d="M80.468,23.705C80.11,23.44 79.704,23.249 79.272,23.142C78.84,23.036 78.392,23.017 77.953,23.086C77.514,23.155 77.093,23.311 76.714,23.545C76.335,23.778 76.007,24.085 75.747,24.448C73.768,27.218 71.938,31.69 74.459,37.268C78.508,46.225 82.031,50.81 83.464,50.81C83.526,50.81 83.588,50.801 83.648,50.781C84.529,50.48 85.804,48.981 86.035,47.659C86.118,47.186 86.098,46.527 85.535,46.075C83.919,44.776 81.017,40.729 80.111,35.403C79.611,32.46 80.581,29.78 81.483,28.049C81.864,27.333 81.976,26.503 81.797,25.711C81.619,24.919 81.162,24.218 80.511,23.737L80.468,23.705Z" fill="#3F3D56"/>
<path d="M76.386,21.061C78.217,21.061 79.701,19.573 79.701,17.737C79.701,15.901 78.217,14.412 76.386,14.412C74.555,14.412 73.07,15.901 73.07,17.737C73.07,19.573 74.555,21.061 76.386,21.061Z" transform="rotate(-57.572 76.386 17.737)" fill="#FFB7B7"/>
<path d="M71.729,17.485L76.51,17.485L76.559,16.795L76.805,17.485L77.541,17.485L77.638,16.117L78.124,17.485L79.549,17.485L79.549,17.417C79.548,16.465 79.171,15.552 78.501,14.879C77.831,14.206 76.923,13.827 75.976,13.826L75.302,13.826C74.354,13.827 73.446,14.206 72.776,14.879C72.106,15.552 71.73,16.465 71.729,17.417L71.729,17.485Z" fill="#2F2E41"/>
<path d="M78.827,19.965L80.867,19.3L80.867,14.319L77.013,14.319L77.108,14.415C78.436,15.747 79.913,20.476 78.827,19.965Z" fill="#2F2E41"/>
</svg>
