<svg width="80" height="90" viewBox="0 0 80 90" fill="none" xmlns="http://www.w3.org/2000/svg" xmlns:xlink="http://www.w3.org/1999/xlink">
<path d="M45.352,69.347C64.488,69.347 80,53.823 80,34.673C80,15.524 64.488,0 45.352,0C26.217,0 10.705,15.524 10.705,34.673C10.705,53.823 26.217,69.347 45.352,69.347Z" fill="#F2F2F2"/>
<path d="M67.994,15.506L4.524,15.506C4.388,15.503 4.28,15.39 4.283,15.254C4.286,15.122 4.392,15.015 4.524,15.013L67.994,15.013C68.13,15.015 68.238,15.128 68.235,15.264C68.232,15.397 68.126,15.503 67.994,15.506Z" fill="#CACACA"/>
<path d="M46.364,23.817L28.819,23.817C27.501,23.817 26.433,24.886 26.433,26.205L26.433,26.205C26.433,27.524 27.501,28.593 28.819,28.593L46.364,28.593C47.682,28.593 48.75,27.524 48.75,26.205C48.75,24.886 47.682,23.817 46.364,23.817Z" fill="#FFFFFF"/>
<path d="M17.484,33.369L57.698,33.369C59.016,33.369 60.084,34.438 60.084,35.757C60.084,37.076 59.016,38.145 57.698,38.145L17.484,38.145C16.166,38.145 15.098,37.076 15.098,35.757C15.098,34.438 16.166,33.369 17.484,33.369Z" fill="#FFFFFF"/>
<path d="M17.484,42.921L57.698,42.921C59.016,42.921 60.084,43.99 60.084,45.309C60.084,46.628 59.016,47.697 57.698,47.697L17.484,47.697C16.166,47.697 15.098,46.628 15.098,45.309C15.098,43.99 16.166,42.921 17.484,42.921Z" fill="#FFFFFF"/>
<path d="M12.501,89.79L12.406,89.781C9.195,89.449 6.292,87.721 4.469,85.055C3.969,84.312 3.565,83.509 3.266,82.666L3.238,82.585L3.323,82.578C4.338,82.496 5.382,82.324 5.846,82.242L2.856,81.228L2.838,81.139C2.661,80.306 3.008,79.449 3.715,78.974C4.423,78.477 5.363,78.461 6.089,78.934C6.414,79.142 6.755,79.348 7.084,79.547C8.215,80.232 9.385,80.94 10.262,81.909C11.592,83.408 12.175,85.427 11.848,87.404L12.501,89.79Z" fill="#F2F2F2"/>
<path d="M23.367,88.302L24.84,88.302L25.541,82.615L23.366,82.615L23.367,88.302Z" fill="#A0616A"/>
<path d="M23.315,89.84L27.845,89.84L27.845,89.783C27.845,88.808 27.056,88.018 26.082,88.018L25.254,87.39L23.71,88.018L23.314,88.018L23.315,89.84Z" fill="#2F2E41"/>
<path d="M11.56,84.218L12.738,85.103L16.709,80.975L14.97,79.669L11.56,84.218Z" fill="#A0616A"/>
<path d="M10.596,85.418L14.22,88.139L14.254,88.093C14.839,87.313 14.681,86.207 13.902,85.622L13.617,84.622L12.005,84.198L11.688,83.96L10.596,85.418Z" fill="#2F2E41"/>
<path d="M16.457,61.614C16.457,61.614 16.538,63.834 16.64,65.614C16.657,65.906 15.974,66.224 15.991,66.541C16.003,66.752 16.132,66.957 16.144,67.177C16.156,67.409 15.979,67.614 15.991,67.854C16.004,68.088 16.206,68.357 16.218,68.597C16.35,71.178 16.826,74.268 16.349,75.132C16.114,75.558 13.118,81.456 13.118,81.456C13.118,81.456 14.787,83.961 15.264,83.126C15.894,82.023 20.749,76.862 20.749,75.877C20.749,74.892 21.872,67.515 21.872,67.515L22.655,71.881L23.014,72.746L22.901,73.254L23.133,73.939L23.146,74.617L23.372,75.877C23.372,75.877 22.692,85.689 23.075,85.962C23.459,86.237 25.317,86.73 25.537,86.237C25.755,85.744 27.175,75.996 27.175,75.996C27.175,75.996 27.404,71.529 27.652,67.377C27.666,67.136 27.836,66.844 27.849,66.607C27.864,66.331 27.757,65.973 27.771,65.706C27.787,65.399 27.923,65.184 27.936,64.89C28.037,62.622 27.468,59.86 27.287,59.588C26.74,58.767 26.247,58.111 26.247,58.111C26.247,58.111 18.877,55.687 16.907,58.15L16.457,61.614Z" fill="#2F2E41"/>
<path d="M23.808,38.783L20.886,38.198L19.522,40.05C16.978,42.553 16.94,44.763 17.394,48.305L17.394,53.276L17.065,56.609C17.065,56.609 15.901,59.044 17.102,59.612C18.302,60.179 26.186,60.13 26.939,59.904C27.692,59.678 27.039,59.4 26.842,58.345C26.47,56.363 26.719,57.319 26.744,56.688C27.111,47.635 26.257,43.919 26.171,42.942L24.685,40.245L23.808,38.783Z" fill="#3F3D56"/>
<path d="M39.209,46.081C38.905,46.659 38.19,46.88 37.613,46.575C37.552,46.543 37.493,46.505 37.438,46.462L31.128,50.472L31.146,48.289L37.276,44.729C37.713,44.239 38.463,44.196 38.953,44.633C39.363,44.998 39.469,45.597 39.209,46.081Z" fill="#A0616A"/>
<path d="M21.501,41.311L20.782,41.235C20.119,41.166 19.467,41.45 19.066,41.984C18.913,42.187 18.803,42.419 18.743,42.666L18.742,42.668C18.562,43.411 18.845,44.19 19.459,44.644L21.941,46.475C23.682,48.83 26.954,50.392 30.793,51.661L36.76,47.953L34.65,45.395L30.557,47.59L24.473,42.877L24.47,42.874L22.154,41.381L21.501,41.311Z" fill="#3F3D56"/>
<path d="M22.821,37.347C24.702,37.347 26.228,35.82 26.228,33.937C26.228,32.054 24.702,30.527 22.821,30.527C20.939,30.527 19.413,32.054 19.413,33.937C19.413,35.82 20.939,37.347 22.821,37.347Z" fill="#A0616A"/>
<path d="M22.9,37.348C22.872,37.348 22.845,37.349 22.817,37.35C22.806,37.38 22.793,37.411 22.778,37.44L22.9,37.348Z" fill="#2F2E41"/>
<path d="M23.835,34.031C23.84,34.065 23.848,34.098 23.859,34.13C23.855,34.097 23.847,34.063 23.835,34.031Z" fill="#2F2E41"/>
<path d="M26.272,30.673C26.132,31.109 26.007,30.556 25.545,30.655C24.99,30.775 24.344,30.734 23.89,30.393C23.213,29.896 22.335,29.762 21.54,30.035C20.763,30.31 19.46,30.504 19.257,31.305C19.187,31.583 19.159,31.885 18.988,32.115C18.839,32.317 18.603,32.432 18.406,32.587C17.741,33.111 18.249,34.599 18.564,35.385C18.879,36.172 19.601,36.745 20.395,37.038C21.164,37.322 21.998,37.372 22.817,37.35C22.96,36.98 22.898,36.552 22.781,36.169C22.653,35.754 22.465,35.353 22.412,34.922C22.358,34.491 22.475,34.001 22.836,33.76C23.168,33.539 23.709,33.673 23.835,34.031C23.761,33.584 24.214,33.151 24.681,33.075C25.183,32.993 25.684,33.174 26.184,33.264C26.685,33.354 26.507,31.248 26.272,30.673Z" fill="#2F2E41"/>
<path d="M38.379,45.975C42.233,45.975 45.357,42.853 45.357,39.002C45.357,35.151 42.233,32.029 38.379,32.029C34.525,32.029 31.401,35.151 31.401,39.002C31.401,42.853 34.525,45.975 38.379,45.975Z" transform="rotate(-170.545 38.379 39.002)" fill="#FFEAD7"/>
<path d="M40.212,36.094L38.38,37.927L36.548,36.094C36.252,35.798 35.771,35.798 35.474,36.094C35.178,36.391 35.178,36.872 35.474,37.169L37.306,39.002L35.474,40.835C35.178,41.132 35.179,41.613 35.475,41.91C35.772,42.206 36.252,42.206 36.548,41.91L38.38,40.077L40.212,41.91C40.508,42.206 40.989,42.206 41.285,41.909C41.581,41.612 41.581,41.132 41.285,40.835L39.454,39.002L41.285,37.169C41.582,36.872 41.582,36.391 41.285,36.094C40.989,35.798 40.508,35.798 40.212,36.094Z" fill="#FFFFFF"/>
<path d="M35.631,33.137C35.837,33.756 35.501,34.425 34.882,34.631C34.816,34.653 34.748,34.669 34.68,34.679L33.202,42.012L31.641,40.487L33.317,33.596C33.266,32.942 33.755,32.37 34.409,32.319C34.957,32.276 35.462,32.614 35.631,33.137Z" fill="#A0616A"/>
<path d="M19.933,42.621L19.38,43.087C18.871,43.519 18.625,44.186 18.733,44.846C18.773,45.097 18.864,45.337 19,45.551L19.001,45.553C19.412,46.198 20.17,46.533 20.923,46.404L23.961,45.879C26.864,46.252 30.256,44.97 33.829,43.077L35.286,36.2L31.98,35.953L30.73,40.429L23.12,41.559L23.115,41.56L20.436,42.198L19.933,42.621Z" fill="#3F3D56"/>
<path d="M37.231,89.958L0.162,90C0.072,90 0,89.927 0,89.837C0,89.748 0.073,89.675 0.162,89.675L37.231,89.633C37.32,89.633 37.393,89.706 37.392,89.796C37.392,89.885 37.32,89.958 37.231,89.958Z" fill="#CACACA"/>
<path d="M7.744,12.382C8.381,12.382 8.898,11.854 8.898,11.202C8.898,10.55 8.381,10.022 7.744,10.022C7.107,10.022 6.591,10.55 6.591,11.202C6.591,11.854 7.107,12.382 7.744,12.382Z" fill="#3F3D56"/>
<path d="M11.73,12.382C12.367,12.382 12.883,11.854 12.883,11.202C12.883,10.55 12.367,10.022 11.73,10.022C11.093,10.022 10.576,10.55 10.576,11.202C10.576,11.854 11.093,12.382 11.73,12.382Z" fill="#3F3D56"/>
<path d="M15.714,12.382C16.351,12.382 16.868,11.854 16.868,11.202C16.868,10.55 16.351,10.022 15.714,10.022C15.077,10.022 14.561,10.55 14.561,11.202C14.561,11.854 15.077,12.382 15.714,12.382Z" fill="#3F3D56"/>
<path d="M20.259,12.134C20.223,12.134 20.188,12.121 20.161,12.093L19.383,11.297C19.331,11.244 19.331,11.159 19.383,11.106L20.161,10.31C20.214,10.256 20.3,10.255 20.354,10.308C20.408,10.361 20.409,10.447 20.356,10.501L19.671,11.202L20.356,11.902C20.409,11.956 20.408,12.043 20.354,12.096C20.327,12.122 20.293,12.134 20.259,12.134Z" fill="#3F3D56"/>
<path d="M21.566,12.134C21.532,12.134 21.497,12.121 21.471,12.095C21.417,12.043 21.416,11.956 21.469,11.902L22.154,11.202L21.469,10.501C21.416,10.447 21.417,10.361 21.471,10.308C21.524,10.255 21.611,10.256 21.664,10.31L22.442,11.106C22.494,11.159 22.494,11.244 22.442,11.297L21.664,12.093C21.637,12.121 21.602,12.134 21.566,12.134Z" fill="#3F3D56"/>
<path d="M62.285,10.158L60.838,10.158C60.673,10.158 60.539,10.292 60.539,10.457L60.539,11.907C60.539,12.072 60.673,12.206 60.838,12.206L62.285,12.206C62.45,12.206 62.585,12.072 62.585,11.907L62.585,10.457C62.585,10.292 62.45,10.158 62.285,10.158Z" fill="#3F3D56"/>
<path d="M58.738,10.158L57.291,10.158C57.126,10.158 56.992,10.292 56.992,10.457L56.992,11.907C56.992,12.072 57.126,12.206 57.291,12.206L58.738,12.206C58.903,12.206 59.038,12.072 59.038,11.907L59.038,10.457C59.038,10.292 58.903,10.158 58.738,10.158Z" fill="#3F3D56"/>
<path d="M65.627,10.226L64.18,10.226C64.015,10.226 63.881,10.36 63.881,10.525L63.881,11.975C63.881,12.14 64.015,12.274 64.18,12.274L65.627,12.274C65.792,12.274 65.927,12.14 65.927,11.975L65.927,10.525C65.927,10.36 65.792,10.226 65.627,10.226Z" fill="#3F3D56"/>
<path d="M43.813,10.778L32.244,10.778C32.042,10.778 31.88,10.942 31.88,11.142C31.88,11.343 32.042,11.507 32.244,11.507L43.813,11.507C44.013,11.507 44.177,11.343 44.177,11.142C44.177,10.942 44.013,10.778 43.813,10.778Z" fill="#3F3D56"/>
</svg>
