<svg width="42" height="46" viewBox="0 0 42 46" fill="none" xmlns="http://www.w3.org/2000/svg" xmlns:xlink="http://www.w3.org/1999/xlink">
<path d="M39,14L25.5,2.165C24.263,1.058 22.661,0.446 21,0.446C19.34,0.446 17.738,1.058 16.5,2.165L3,14C2.286,14.639 1.715,15.423 1.327,16.3C0.939,17.177 0.743,18.126 0.75,19.085L0.75,38.75C0.75,40.54 1.461,42.257 2.727,43.523C3.993,44.789 5.71,45.5 7.5,45.5L34.5,45.5C36.29,45.5 38.007,44.789 39.273,43.523C40.539,42.257 41.25,40.54 41.25,38.75L41.25,19.062C41.255,18.108 41.056,17.162 40.669,16.29C40.281,15.417 39.712,14.637 39,14L39,14ZM25.5,41L16.5,41L16.5,29.75C16.5,29.153 16.737,28.581 17.159,28.159C17.581,27.737 18.153,27.5 18.75,27.5L23.25,27.5C23.847,27.5 24.419,27.737 24.841,28.159C25.263,28.581 25.5,29.153 25.5,29.75L25.5,41ZM36.75,38.75C36.75,39.347 36.513,39.919 36.091,40.341C35.669,40.763 35.097,41 34.5,41L30,41L30,29.75C30,27.96 29.289,26.243 28.023,24.977C26.757,23.711 25.04,23 23.25,23L18.75,23C16.96,23 15.243,23.711 13.977,24.977C12.711,26.243 12,27.96 12,29.75L12,41L7.5,41C6.903,41 6.331,40.763 5.909,40.341C5.487,39.919 5.25,39.347 5.25,38.75L5.25,19.062C5.251,18.743 5.319,18.427 5.451,18.136C5.583,17.845 5.775,17.586 6.015,17.375L19.515,5.562C19.926,5.202 20.454,5.003 21,5.003C21.547,5.003 22.075,5.202 22.485,5.562L35.985,17.375C36.225,17.586 36.418,17.845 36.549,18.136C36.681,18.427 36.75,18.743 36.75,19.062L36.75,38.75Z" fill="#FFB907"/>
</svg>
