<svg width="20" height="34" viewBox="0 0 20 34" fill="none" xmlns="http://www.w3.org/2000/svg" xmlns:xlink="http://www.w3.org/1999/xlink">
<path d="M17.5,16.5L18.914,17.914C19.695,17.133 19.695,15.867 18.914,15.086L17.5,16.5ZM3.914,0.086C3.133,-0.695 1.867,-0.695 1.086,0.086C0.305,0.867 0.305,2.133 1.086,2.914L3.914,0.086ZM1.086,30.086C0.305,30.867 0.305,32.133 1.086,32.914C1.867,33.695 3.133,33.695 3.914,32.914L1.086,30.086ZM18.914,15.086L3.914,0.086L1.086,2.914L16.086,17.914L18.914,15.086ZM16.086,15.086L1.086,30.086L3.914,32.914L18.914,17.914L16.086,15.086Z" transform="rotate(-180 10 16.5)" fill="#6E7491"/>
</svg>
