<svg width="42" height="70" viewBox="0 0 42 70" fill="none" xmlns="http://www.w3.org/2000/svg" xmlns:xlink="http://www.w3.org/1999/xlink">
<path d="M2,65.607C1.172,65.607 0.5,66.279 0.5,67.107C0.5,67.936 1.172,68.607 2,68.607L2,65.607ZM40,68.607C40.828,68.607 41.5,67.936 41.5,67.107C41.5,66.279 40.828,65.607 40,65.607L40,68.607ZM2,33.032C1.172,33.032 0.5,33.704 0.5,34.532C0.5,35.361 1.172,36.032 2,36.032L2,33.032ZM40,36.032C40.828,36.032 41.5,35.361 41.5,34.532C41.5,33.704 40.828,33.032 40,33.032L40,36.032ZM2,0.457C1.172,0.457 0.5,1.129 0.5,1.957C0.5,2.785 1.172,3.457 2,3.457L2,0.457ZM40,3.457C40.828,3.457 41.5,2.785 41.5,1.957C41.5,1.129 40.828,0.457 40,0.457L40,3.457ZM2,68.607L40,68.607L40,65.607L2,65.607L2,68.607ZM40,65.607L2,65.607L2,68.607L40,68.607L40,65.607ZM2,36.032L40,36.032L40,33.032L2,33.032L2,36.032ZM40,33.032L2,33.032L2,36.032L40,36.032L40,33.032ZM2,3.457L40,3.457L40,0.457L2,0.457L2,3.457Z" fill="#FFF9F9"/>
</svg>
