<svg width="36" height="36" viewBox="0 0 36 36" fill="none" xmlns="http://www.w3.org/2000/svg" xmlns:xlink="http://www.w3.org/1999/xlink">
<path d="M32.586,35.414C33.367,36.195 34.633,36.195 35.414,35.414C36.195,34.633 36.195,33.367 35.414,32.586L32.586,35.414ZM3.414,0.586C2.633,-0.195 1.367,-0.195 0.586,0.586C-0.195,1.367 -0.195,2.633 0.586,3.414L3.414,0.586ZM35.414,3.414C36.195,2.633 36.195,1.367 35.414,0.586C34.633,-0.195 33.367,-0.195 32.586,0.586L35.414,3.414ZM0.586,32.586C-0.195,33.367 -0.195,34.633 0.586,35.414C1.367,36.195 2.633,36.195 3.414,35.414L0.586,32.586ZM35.414,32.586L3.414,0.586L0.586,3.414L32.586,35.414L35.414,32.586ZM32.586,0.586L0.586,32.586L3.414,35.414L35.414,3.414L32.586,0.586Z" fill="#000000"/>
</svg>
