<svg width="40" height="40" viewBox="0 0 40 40" fill="none" xmlns="http://www.w3.org/2000/svg" xmlns:xlink="http://www.w3.org/1999/xlink">
<path d="M34,4L30,4L30,2C30,1.47 29.789,0.961 29.414,0.586C29.039,0.211 28.53,0 28,0C27.47,0 26.961,0.211 26.586,0.586C26.211,0.961 26,1.47 26,2L26,4L14,4L14,2C14,1.47 13.789,0.961 13.414,0.586C13.039,0.211 12.53,0 12,0C11.47,0 10.961,0.211 10.586,0.586C10.211,0.961 10,1.47 10,2L10,4L6,4C4.409,4 2.883,4.632 1.757,5.757C0.632,6.883 0,8.409 0,10L0,34C0,35.591 0.632,37.117 1.757,38.243C2.883,39.368 4.409,40 6,40L34,40C35.591,40 37.117,39.368 38.243,38.243C39.368,37.117 40,35.591 40,34L40,10C40,8.409 39.368,6.883 38.243,5.757C37.117,4.632 35.591,4 34,4L34,4ZM36,34C36,34.53 35.789,35.039 35.414,35.414C35.039,35.789 34.53,36 34,36L6,36C5.47,36 4.961,35.789 4.586,35.414C4.211,35.039 4,34.53 4,34L4,20L36,20L36,34ZM36,16L4,16L4,10C4,9.47 4.211,8.961 4.586,8.586C4.961,8.211 5.47,8 6,8L10,8L10,10C10,10.53 10.211,11.039 10.586,11.414C10.961,11.789 11.47,12 12,12C12.53,12 13.039,11.789 13.414,11.414C13.789,11.039 14,10.53 14,10L14,8L26,8L26,10C26,10.53 26.211,11.039 26.586,11.414C26.961,11.789 27.47,12 28,12C28.53,12 29.039,11.789 29.414,11.414C29.789,11.039 30,10.53 30,10L30,8L34,8C34.53,8 35.039,8.211 35.414,8.586C35.789,8.961 36,9.47 36,10L36,16Z" fill="#459DB5"/>
</svg>
