<svg width="40" height="40" viewBox="0 0 40 40" fill="none" xmlns="http://www.w3.org/2000/svg" xmlns:xlink="http://www.w3.org/1999/xlink">
<path d="M20,20C22.652,20 25.196,18.946 27.071,17.071C28.946,15.196 30,12.652 30,10C30,7.348 28.946,4.804 27.071,2.929C25.196,1.054 22.652,0 20,0C17.348,0 14.804,1.054 12.929,2.929C11.054,4.804 10,7.348 10,10C10,12.652 11.054,15.196 12.929,17.071C14.804,18.946 17.348,20 20,20L20,20ZM26.667,10C26.667,11.768 25.964,13.464 24.714,14.714C23.464,15.964 21.768,16.667 20,16.667C18.232,16.667 16.536,15.964 15.286,14.714C14.036,13.464 13.333,11.768 13.333,10C13.333,8.232 14.036,6.536 15.286,5.286C16.536,4.036 18.232,3.333 20,3.333C21.768,3.333 23.464,4.036 24.714,5.286C25.964,6.536 26.667,8.232 26.667,10L26.667,10ZM40,36.667C40,40 36.667,40 36.667,40L3.333,40C3.333,40 0,40 0,36.667C0,33.333 3.333,23.333 20,23.333C36.667,23.333 40,33.333 40,36.667ZM36.667,36.653C36.663,35.833 36.153,33.367 33.893,31.107C31.72,28.933 27.63,26.667 20,26.667C12.367,26.667 8.28,28.933 6.107,31.107C3.847,33.367 3.34,35.833 3.333,36.653L36.667,36.653Z" fill="#000000"/>
</svg>
