<svg width="32" height="32" viewBox="0 0 32 32" fill="none" xmlns="http://www.w3.org/2000/svg" xmlns:xlink="http://www.w3.org/1999/xlink">
<path d="M18.865,2.365L15.745,5.5L19,5.5C22.183,5.5 25.235,6.764 27.485,9.015C29.736,11.265 31,14.317 31,17.5L28,17.5C28,15.113 27.052,12.824 25.364,11.136C23.676,9.448 21.387,8.5 19,8.5L15.745,8.5L18.88,11.635L16.75,13.75L10,7L12.115,4.885L16.75,0.25L18.865,2.365ZM1,16L1,31L25,31L25,16L1,16ZM4,25.84L4,21.175C4.902,20.651 5.651,19.902 6.175,19L19.825,19C20.349,19.902 21.098,20.651 22,21.175L22,25.84C21.111,26.363 20.372,27.107 19.855,28L6.175,28C5.649,27.104 4.9,26.359 4,25.84ZM13,26.5C14.242,26.5 15.25,25.157 15.25,23.5C15.25,21.843 14.242,20.5 13,20.5C11.758,20.5 10.75,21.843 10.75,23.5C10.75,25.157 11.758,26.5 13,26.5Z" fill="#000000"/>
</svg>
