<svg width="46" height="78" viewBox="0 0 46 78" fill="none" xmlns="http://www.w3.org/2000/svg" xmlns:xlink="http://www.w3.org/1999/xlink">
<path d="M43.567,69.681L35.302,55.002C37.969,48.951 39.416,41.478 39.41,33.785C39.41,26.934 38.27,20.237 36.133,14.54C33.996,8.844 30.959,4.404 27.406,1.782C23.853,-0.84 19.943,-1.526 16.171,-0.189C12.399,1.147 8.934,4.447 6.215,9.291C3.495,14.136 1.643,20.308 0.893,27.027C0.143,33.747 0.528,40.712 2,47.041C3.471,53.371 5.964,58.781 9.162,62.587C12.359,66.393 16.119,68.425 19.965,68.425C24.283,68.434 28.478,65.857 31.875,61.107L40.115,75.829C40.341,76.235 40.61,76.557 40.906,76.777C41.202,76.997 41.52,77.11 41.841,77.11C42.162,77.11 42.479,76.997 42.776,76.777C43.072,76.557 43.341,76.235 43.567,75.829C43.794,75.427 43.975,74.948 44.099,74.42C44.222,73.892 44.286,73.326 44.286,72.755C44.286,72.183 44.222,71.617 44.099,71.09C43.975,70.562 43.794,70.083 43.567,69.681L43.567,69.681ZM5.381,33.785C5.381,28.647 6.236,23.624 7.839,19.351C9.441,15.079 11.719,11.749 14.384,9.783C17.049,7.816 19.981,7.302 22.81,8.304C25.639,9.307 28.238,11.781 30.277,15.415C32.317,19.048 33.706,23.677 34.269,28.717C34.831,33.756 34.543,38.98 33.439,43.727C32.335,48.474 30.466,52.532 28.067,55.387C25.669,58.241 22.849,59.765 19.965,59.765C16.097,59.765 12.387,57.028 9.652,52.156C6.917,47.283 5.381,40.675 5.381,33.785Z" fill="#FFFFFF"/>
</svg>
