<svg width="18" height="10" viewBox="0 0 18 10" fill="none" xmlns="http://www.w3.org/2000/svg" xmlns:xlink="http://www.w3.org/1999/xlink">
<path d="M17.485,2.201C18.071,1.615 18.071,0.666 17.485,0.08C16.899,-0.506 15.949,-0.506 15.364,0.08L17.485,2.201ZM2.635,0.08C2.049,-0.506 1.099,-0.506 0.514,0.08C-0.072,0.666 -0.072,1.615 0.514,2.201L2.635,0.08ZM15.364,0.08L9.251,6.192L11.372,8.314L17.485,2.201L15.364,0.08ZM9.251,6.192C9.115,6.329 8.883,6.329 8.747,6.192L6.626,8.314C7.934,9.621 10.065,9.621 11.372,8.314L9.251,6.192ZM8.747,6.192L2.635,0.08L0.514,2.201L6.626,8.314L8.747,6.192Z" fill="#1A1A1A"/>
</svg>
