<svg width="40" height="40" viewBox="0 0 40 40" fill="none" xmlns="http://www.w3.org/2000/svg" xmlns:xlink="http://www.w3.org/1999/xlink">
<path d="M25.6,10L28,13L14.4,30L12,27L25.6,10ZM4,0L36,0C38.22,0 40,2.225 40,5L40,15C38.939,15 37.922,15.527 37.172,16.464C36.421,17.402 36,18.674 36,20C36,21.326 36.421,22.598 37.172,23.536C37.922,24.473 38.939,25 40,25L40,35C40,37.775 38.22,40 36,40L4,40C2.939,40 1.922,39.473 1.172,38.536C0.421,37.598 0,36.326 0,35L0,25C2.22,25 4,22.775 4,20C4,18.674 3.579,17.402 2.828,16.464C2.078,15.527 1.061,15 0,15L0,5C0,3.674 0.421,2.402 1.172,1.464C1.922,0.527 2.939,0 4,0ZM4,5L4,11.35C5.215,12.226 6.225,13.487 6.927,15.005C7.628,16.524 7.998,18.246 7.998,20C7.998,21.754 7.628,23.476 6.927,24.995C6.225,26.513 5.215,27.774 4,28.65L4,35L36,35L36,28.65C34.785,27.774 33.775,26.513 33.073,24.995C32.372,23.476 32.002,21.754 32.002,20C32.002,18.246 32.372,16.524 33.073,15.005C33.775,13.487 34.785,12.226 36,11.35L36,5L4,5ZM15,10C16.66,10 18,11.675 18,13.75C18,15.825 16.66,17.5 15,17.5C13.34,17.5 12,15.825 12,13.75C12,11.675 13.34,10 15,10ZM25,22.5C26.66,22.5 28,24.175 28,26.25C28,28.325 26.66,30 25,30C23.34,30 22,28.325 22,26.25C22,24.175 23.34,22.5 25,22.5Z" fill="#000000"/>
</svg>
