<svg width="14" height="28" viewBox="0 0 14 28" fill="none" xmlns="http://www.w3.org/2000/svg" xmlns:xlink="http://www.w3.org/1999/xlink">
<path d="M0.305,24.82C-0.281,25.405 -0.281,26.355 0.305,26.941C0.89,27.527 1.84,27.527 2.426,26.941L0.305,24.82ZM11.145,16.1L12.206,17.161L11.145,16.1ZM11.145,11.9L12.206,10.839L11.145,11.9ZM2.426,1.059C1.84,0.474 0.89,0.474 0.305,1.059C-0.281,1.645 -0.281,2.595 0.305,3.181L2.426,1.059ZM2.426,26.941L12.206,17.161L10.085,15.039L0.305,24.82L2.426,26.941ZM12.206,17.161C13.947,15.42 13.947,12.58 12.206,10.839L10.085,12.961C10.654,13.53 10.654,14.47 10.085,15.039L12.206,17.161ZM12.206,10.839L2.426,1.059L0.305,3.181L10.085,12.961L12.206,10.839Z" fill="#1A1A1A"/>
</svg>
