<svg width="16" height="30" viewBox="0 0 16 30" fill="none" xmlns="http://www.w3.org/2000/svg" xmlns:xlink="http://www.w3.org/1999/xlink">
<path d="M2.004,28.058C1.536,28.059 1.083,27.897 0.724,27.598C0.521,27.431 0.354,27.224 0.231,26.992C0.108,26.759 0.033,26.504 0.008,26.242C-0.016,25.98 0.012,25.716 0.09,25.465C0.168,25.214 0.295,24.981 0.464,24.778L9.424,14.058L0.784,3.318C0.617,3.114 0.493,2.879 0.418,2.626C0.344,2.373 0.319,2.108 0.347,1.846C0.375,1.584 0.455,1.33 0.581,1.099C0.707,0.868 0.878,0.664 1.084,0.498C1.29,0.316 1.533,0.179 1.795,0.095C2.058,0.011 2.335,-0.018 2.609,0.01C2.883,0.039 3.149,0.123 3.389,0.259C3.629,0.394 3.838,0.578 4.004,0.798L13.664,12.798C13.958,13.156 14.119,13.605 14.119,14.068C14.119,14.532 13.958,14.981 13.664,15.338L3.664,27.338C3.463,27.581 3.208,27.772 2.92,27.897C2.631,28.022 2.317,28.077 2.004,28.058Z" fill="#FFB907"/>
</svg>
