<svg width="28" height="14" viewBox="0 0 28 14" fill="none" xmlns="http://www.w3.org/2000/svg" xmlns:xlink="http://www.w3.org/1999/xlink">
<path d="M26.94,2.486C27.526,1.9 27.526,0.95 26.94,0.364C26.354,-0.221 25.404,-0.221 24.819,0.364L26.94,2.486ZM3.18,0.364C2.594,-0.221 1.644,-0.221 1.058,0.364C0.473,0.95 0.473,1.9 1.058,2.486L3.18,0.364ZM24.819,0.364L15.038,10.144L17.16,12.266L26.94,2.486L24.819,0.364ZM15.038,10.144C14.469,10.714 13.529,10.714 12.96,10.144L10.838,12.266C12.579,14.006 15.419,14.006 17.16,12.266L15.038,10.144ZM12.96,10.144L3.18,0.364L1.058,2.486L10.838,12.266L12.96,10.144Z" fill="#292D32"/>
</svg>
