<svg width="18" height="36" viewBox="0 0 18 36" fill="none" xmlns="http://www.w3.org/2000/svg" xmlns:xlink="http://www.w3.org/1999/xlink">
<path d="M14.939,33.901C15.525,34.486 16.475,34.486 17.06,33.901C17.646,33.315 17.646,32.365 17.06,31.779L14.939,33.901ZM2.96,19.8L4.02,18.739L2.96,19.8ZM2.96,14.2L4.02,15.261L2.96,14.2ZM17.06,2.221C17.646,1.635 17.646,0.685 17.06,0.099C16.475,-0.487 15.525,-0.487 14.939,0.099L17.06,2.221ZM17.06,31.779L4.02,18.739L1.899,20.861L14.939,33.901L17.06,31.779ZM4.02,18.739C3.066,17.785 3.066,16.215 4.02,15.261L1.899,13.139C-0.227,15.265 -0.227,18.735 1.899,20.861L4.02,18.739ZM4.02,15.261L17.06,2.221L14.939,0.099L1.899,13.139L4.02,15.261Z" fill="#1A1A1A"/>
</svg>
