<svg width="36" height="22" viewBox="0 0 36 22" fill="none" xmlns="http://www.w3.org/2000/svg" xmlns:xlink="http://www.w3.org/1999/xlink">
<path d="M32,18C32,19.105 32.895,20 34,20C35.105,20 36,19.105 36,18C36,8.059 27.941,0 18,0C8.059,0 0,8.059 0,18C0,19.105 0.895,20 2,20C3.105,20 4,19.105 4,18C4,10.268 10.268,4 18,4C25.732,4 32,10.268 32,18ZM18,22C21.314,22 24,19.314 24,16C24,12.686 21.314,10 18,10C14.686,10 12,12.686 12,16C12,19.314 14.686,22 18,22Z" clip-rule="evenodd" fill-rule="evenodd" fill="#FFFFFF"/>
</svg>
