<svg width="18" height="10" viewBox="0 0 18 10" fill="none" xmlns="http://www.w3.org/2000/svg" xmlns:xlink="http://www.w3.org/1999/xlink">
<path d="M17.486,2.201C18.072,1.615 18.072,0.666 17.486,0.08C16.9,-0.506 15.95,-0.506 15.365,0.08L17.486,2.201ZM2.636,0.08C2.05,-0.506 1.1,-0.506 0.515,0.08C-0.071,0.666 -0.071,1.615 0.515,2.201L2.636,0.08ZM15.365,0.08L9.252,6.192L11.373,8.314L17.486,2.201L15.365,0.08ZM9.252,6.192C9.116,6.329 8.884,6.329 8.748,6.192L6.627,8.314C7.935,9.621 10.066,9.621 11.373,8.314L9.252,6.192ZM8.748,6.192L2.636,0.08L0.515,2.201L6.627,8.314L8.748,6.192Z" fill="#1A1A1A"/>
</svg>
