<svg width="30" height="32" viewBox="0 0 30 32" fill="none" xmlns="http://www.w3.org/2000/svg" xmlns:xlink="http://www.w3.org/1999/xlink">
<path d="M16.865,2.365L13.745,5.5L17,5.5C20.183,5.5 23.235,6.764 25.485,9.015C27.736,11.265 29,14.317 29,17.5L26,17.5C26,15.113 25.052,12.824 23.364,11.136C21.676,9.448 19.387,8.5 17,8.5L13.745,8.5L16.88,11.635L14.75,13.75L8,7L10.115,4.885L14.75,0.25L16.865,2.365ZM-1,16L-1,31L23,31L23,16L-1,16ZM2,25.84L2,21.175C2.902,20.651 3.651,19.902 4.175,19L17.825,19C18.349,19.902 19.098,20.651 20,21.175L20,25.84C19.111,26.363 18.372,27.107 17.855,28L4.175,28C3.649,27.104 2.9,26.359 2,25.84ZM11,26.5C12.242,26.5 13.25,25.157 13.25,23.5C13.25,21.843 12.242,20.5 11,20.5C9.758,20.5 8.75,21.843 8.75,23.5C8.75,25.157 9.758,26.5 11,26.5Z" fill="#000000"/>
</svg>
