<svg width="28" height="14" viewBox="0 0 28 14" fill="none" xmlns="http://www.w3.org/2000/svg" xmlns:xlink="http://www.w3.org/1999/xlink">
<path d="M25.94,2.486C26.526,1.9 26.526,0.95 25.94,0.364C25.354,-0.221 24.404,-0.221 23.819,0.364L25.94,2.486ZM2.18,0.364C1.594,-0.221 0.644,-0.221 0.058,0.364C-0.527,0.95 -0.527,1.9 0.058,2.486L2.18,0.364ZM23.819,0.364L14.038,10.144L16.16,12.266L25.94,2.486L23.819,0.364ZM14.038,10.144C13.469,10.714 12.529,10.714 11.96,10.144L9.838,12.266C11.579,14.006 14.419,14.006 16.16,12.266L14.038,10.144ZM11.96,10.144L2.18,0.364L0.058,2.486L9.838,12.266L11.96,10.144Z" fill="#292D32"/>
</svg>
