<svg width="48" height="48" viewBox="0 0 48 48" fill="none" xmlns="http://www.w3.org/2000/svg" xmlns:xlink="http://www.w3.org/1999/xlink">
<path d="M7.978,29.321L6.917,30.382C6.924,30.388 6.931,30.395 6.938,30.402L7.978,29.321ZM4.938,26.281L5.998,25.22L5.998,25.22L4.938,26.281ZM4.938,21.761L5.998,22.821L5.998,22.821L4.938,21.761ZM7.978,18.721L6.917,17.66L6.917,17.66L7.978,18.721ZM18.678,8.021L19.738,9.081L19.738,9.081L18.678,8.021ZM21.718,4.981L20.657,3.92L20.657,3.92L21.718,4.981ZM26.238,4.981L27.298,3.92L26.238,4.981ZM29.278,8.021L28.217,9.081L29.278,8.021ZM21.718,43.061L20.657,44.122L20.657,44.122L21.718,43.061ZM18.678,40.021L19.738,38.96L19.738,38.96L18.678,40.021ZM8.918,31.581L10.418,31.581L8.918,31.581ZM9.038,28.26L5.998,25.22L3.877,27.341L6.917,30.382L9.038,28.26ZM5.998,25.22C5.344,24.566 5.344,23.476 5.998,22.821L3.877,20.7C2.051,22.526 2.051,25.516 3.877,27.342L5.998,25.22ZM5.998,22.821L9.038,19.781L6.917,17.66L3.877,20.7L5.998,22.821ZM9.038,19.781C9.478,19.342 9.809,18.77 10.028,18.24C10.248,17.711 10.418,17.076 10.418,16.461L7.418,16.461C7.418,16.565 7.378,16.8 7.257,17.091C7.137,17.382 6.997,17.58 6.917,17.66L9.038,19.781ZM10.418,16.461L10.418,12.161L7.418,12.161L7.418,16.461L10.418,16.461ZM10.418,12.161C10.418,11.229 11.186,10.461 12.118,10.461L12.118,7.461C9.529,7.461 7.418,9.572 7.418,12.161L10.418,12.161ZM12.118,10.461L16.418,10.461L16.418,7.461L12.118,7.461L12.118,10.461ZM16.418,10.461C17.033,10.461 17.668,10.291 18.197,10.071C18.727,9.852 19.299,9.521 19.738,9.081L17.617,6.96C17.537,7.04 17.339,7.18 17.048,7.3C16.757,7.421 16.522,7.461 16.418,7.461L16.418,10.461ZM19.738,9.081L22.778,6.041L20.657,3.92L17.617,6.96L19.738,9.081ZM22.778,6.041C23.433,5.387 24.523,5.387 25.177,6.041L27.298,3.92C25.473,2.094 22.483,2.094 20.657,3.92L22.778,6.041ZM25.177,6.041L28.217,9.081L30.338,6.96L27.298,3.92L25.177,6.041ZM28.217,9.081C28.657,9.521 29.229,9.852 29.758,10.071C30.287,10.291 30.922,10.461 31.538,10.461L31.538,7.461C31.433,7.461 31.198,7.421 30.907,7.3C30.617,7.18 30.419,7.04 30.338,6.96L28.217,9.081ZM31.538,10.461L35.838,10.461L35.838,7.461L31.538,7.461L31.538,10.461ZM35.838,10.461C36.769,10.461 37.538,11.229 37.538,12.161L40.538,12.161C40.538,9.572 38.426,7.461 35.838,7.461L35.838,10.461ZM37.538,12.161L37.538,16.461L40.538,16.461L40.538,12.161L37.538,12.161ZM37.538,16.461C37.538,17.076 37.708,17.711 37.927,18.24C38.147,18.77 38.477,19.342 38.917,19.781L41.038,17.66C40.958,17.58 40.819,17.382 40.698,17.091C40.578,16.8 40.538,16.565 40.538,16.461L37.538,16.461ZM38.917,19.781L41.957,22.821L44.078,20.7L41.038,17.66L38.917,19.781ZM41.957,22.821C42.611,23.476 42.611,24.566 41.957,25.22L44.078,27.342C45.904,25.516 45.904,22.526 44.078,20.7L41.957,22.821ZM41.957,25.22L38.917,28.26L41.038,30.382L44.078,27.342L41.957,25.22ZM38.917,28.26C38.477,28.7 38.147,29.272 37.927,29.801C37.708,30.33 37.538,30.965 37.538,31.581L40.538,31.581C40.538,31.477 40.578,31.242 40.698,30.95C40.819,30.66 40.958,30.462 41.038,30.382L38.917,28.26ZM37.538,31.581L37.538,35.881L40.538,35.881L40.538,31.581L37.538,31.581ZM37.538,35.881C37.538,36.812 36.769,37.581 35.838,37.581L35.838,40.581C38.426,40.581 40.538,38.469 40.538,35.881L37.538,35.881ZM35.838,37.581L31.538,37.581L31.538,40.581L35.838,40.581L35.838,37.581ZM31.538,37.581C30.922,37.581 30.287,37.751 29.758,37.97C29.229,38.19 28.657,38.52 28.217,38.96L30.338,41.082C30.419,41.001 30.617,40.862 30.907,40.741C31.198,40.621 31.433,40.581 31.538,40.581L31.538,37.581ZM28.217,38.96L25.177,42L27.298,44.122L30.338,41.082L28.217,38.96ZM25.177,42C24.523,42.654 23.433,42.654 22.778,42L20.657,44.122C22.483,45.947 25.473,45.947 27.298,44.122L25.177,42ZM22.778,42L19.738,38.96L17.617,41.081L20.657,44.122L22.778,42ZM19.738,38.96C19.299,38.52 18.727,38.19 18.197,37.97C17.668,37.751 17.033,37.581 16.418,37.581L16.418,40.581C16.522,40.581 16.757,40.621 17.048,40.742C17.339,40.862 17.537,41.001 17.617,41.082L19.738,38.96ZM16.418,37.581L12.118,37.581L12.118,40.581L16.418,40.581L16.418,37.581ZM12.118,37.581C11.186,37.581 10.418,36.812 10.418,35.881L7.418,35.881C7.418,38.469 9.529,40.581 12.118,40.581L12.118,37.581ZM10.418,35.881L10.418,31.581L7.418,31.581L7.418,35.881L10.418,35.881ZM10.418,31.581C10.418,30.96 10.25,30.321 10.028,29.786C9.808,29.255 9.473,28.677 9.017,28.24L6.938,30.402C7.003,30.464 7.137,30.647 7.257,30.935C7.376,31.221 7.418,31.462 7.418,31.581L10.418,31.581Z" fill="#1A1A1A"/>
<path d="M16.939,28.939C16.354,29.525 16.354,30.475 16.939,31.061C17.525,31.646 18.475,31.646 19.061,31.061L16.939,28.939ZM31.061,19.061C31.646,18.475 31.646,17.525 31.061,16.939C30.475,16.354 29.525,16.354 28.939,16.939L31.061,19.061ZM19.061,31.061L31.061,19.061L28.939,16.939L16.939,28.939L19.061,31.061Z" fill="#1A1A1A"/>
<path d="M28.989,27C27.884,27 26.989,27.895 26.989,29C26.989,30.105 27.884,31 28.989,31L28.989,27ZM29.007,31C30.112,31 31.007,30.105 31.007,29C31.007,27.895 30.112,27 29.007,27L29.007,31ZM28.989,31L29.007,31L29.007,27L28.989,27L28.989,31Z" fill="#1A1A1A"/>
<path d="M18.989,17C17.884,17 16.989,17.895 16.989,19C16.989,20.105 17.884,21 18.989,21L18.989,17ZM19.007,21C20.112,21 21.007,20.105 21.007,19C21.007,17.895 20.112,17 19.007,17L19.007,21ZM18.989,21L19.007,21L19.007,17L18.989,17L18.989,21Z" fill="#1A1A1A"/>
</svg>
