<svg width="60" height="62" viewBox="0 0 60 62" fill="none" xmlns="http://www.w3.org/2000/svg" xmlns:xlink="http://www.w3.org/1999/xlink">
<path d="M16.25,52.5L17.022,51.214C16.666,51 16.237,50.944 15.838,51.058L16.25,52.5ZM7.25,43.5L8.702,43.877C8.796,43.513 8.751,43.126 8.574,42.794L7.25,43.5ZM4.881,52.612L6.333,52.989L4.881,52.612ZM7.366,55.038L6.954,53.596L7.366,55.038ZM15.478,53.786C19.464,56.178 24.231,57.5 29,57.5L29,54.5C24.769,54.5 20.536,53.322 17.022,51.214L15.478,53.786ZM29,57.5C43.578,57.5 55.5,45.578 55.5,31L52.5,31C52.5,43.922 41.922,54.5 29,54.5L29,57.5ZM55.5,31C55.5,16.422 43.578,4.5 29,4.5L29,7.5C41.922,7.5 52.5,18.078 52.5,31L55.5,31ZM29,4.5C14.422,4.5 2.5,16.422 2.5,31L5.5,31C5.5,18.078 16.078,7.5 29,7.5L29,4.5ZM2.5,31C2.5,35.781 3.828,40.272 5.926,44.206L8.574,42.794C6.672,39.228 5.5,35.219 5.5,31L2.5,31ZM5.798,43.123L3.429,52.235L6.333,52.989L8.702,43.877L5.798,43.123ZM7.778,56.481L16.662,53.942L15.838,51.058L6.954,53.596L7.778,56.481ZM3.429,52.235C2.748,54.856 5.174,57.225 7.778,56.481L6.954,53.596C6.582,53.702 6.235,53.364 6.333,52.989L3.429,52.235Z" fill="#F9F9F9"/>
<path d="M39.202,40.495L40.312,41.504L40.313,41.503L39.202,40.495ZM37.354,41.823L36.786,40.434L36.778,40.438L37.354,41.823ZM27.609,39.201L26.725,40.413L26.727,40.415L27.609,39.201ZM23.913,36.051L22.848,37.108L22.858,37.118L23.913,36.051ZM20.77,32.372L19.552,33.249L19.558,33.256L20.77,32.372ZM18.561,28.536L17.179,29.119L17.181,29.123L18.561,28.536ZM18.156,22.686L19.548,23.244L19.551,23.236L18.156,22.686ZM19.451,20.807L20.48,21.899L20.491,21.888L20.503,21.877L19.451,20.807ZM22.707,19.953L22.059,21.305L22.08,21.315L22.707,19.953ZM23.462,20.582L22.23,21.437L22.24,21.451L23.462,20.582ZM26.076,24.261L24.853,25.13L24.86,25.139L26.076,24.261ZM26.527,25.049L25.139,25.618L25.149,25.64L26.527,25.049ZM26.448,26.534L25.167,25.753L25.155,25.774L25.143,25.795L26.448,26.534ZM25.817,27.332L24.757,26.271L24.747,26.281L24.737,26.292L25.817,27.332ZM24.961,28.221L26.021,29.283L26.031,29.272L26.041,29.262L24.961,28.221ZM24.814,28.93L23.359,29.294L23.38,29.377L23.41,29.457L24.814,28.93ZM24.904,29.155L23.482,29.63L23.524,29.757L23.588,29.874L24.904,29.155ZM25.952,30.595L24.808,31.565L24.819,31.577L25.952,30.595ZM27.586,32.372L26.516,33.424L26.526,33.434L26.536,33.444L27.586,32.372ZM29.377,34.026L28.407,35.17L28.409,35.172L29.377,34.026ZM30.831,35.061L30.13,36.387L30.2,36.425L30.274,36.454L30.831,35.061ZM31.034,35.151L30.444,36.53L30.475,36.544L30.508,36.556L31.034,35.151ZM31.777,35.005L30.724,33.937L30.717,33.944L31.777,35.005ZM32.634,34.161L33.686,35.23L33.693,35.223L32.634,34.161ZM33.445,33.531L34.138,34.862L34.182,34.839L34.224,34.813L33.445,33.531ZM35.721,33.88L36.588,32.656L36.576,32.648L36.563,32.639L35.721,33.88ZM39.45,36.524L38.582,37.748L38.597,37.758L39.45,36.524ZM40.07,37.244L41.462,36.686L41.453,36.662L41.442,36.639L40.07,37.244ZM38.75,38.121C38.75,38.301 38.711,38.498 38.612,38.706L41.324,39.989C41.609,39.387 41.75,38.752 41.75,38.121L38.75,38.121ZM38.612,38.706C38.48,38.985 38.313,39.242 38.091,39.487L40.313,41.503C40.745,41.028 41.073,40.52 41.324,39.989L38.612,38.706ZM38.092,39.486C37.672,39.948 37.244,40.247 36.786,40.434L37.923,43.211C38.84,42.835 39.628,42.257 40.312,41.504L38.092,39.486ZM36.778,40.438C36.292,40.64 35.756,40.75 35.157,40.75L35.157,43.75C36.136,43.75 37.065,43.568 37.931,43.207L36.778,40.438ZM35.157,40.75C34.245,40.75 33.217,40.536 32.072,40.048L30.897,42.809C32.343,43.424 33.771,43.75 35.157,43.75L35.157,40.75ZM32.072,40.048C30.891,39.546 29.693,38.862 28.491,37.988L26.727,40.415C28.093,41.408 29.487,42.209 30.897,42.809L32.072,40.048ZM28.492,37.989C27.259,37.089 26.087,36.092 24.968,34.985L22.858,37.118C24.082,38.328 25.367,39.423 26.725,40.413L28.492,37.989ZM24.978,34.995C23.869,33.877 22.87,32.708 21.982,31.489L19.558,33.256C20.539,34.602 21.636,35.886 22.848,37.108L24.978,34.995ZM21.987,31.496C21.116,30.287 20.431,29.101 19.942,27.949L17.181,29.123C17.773,30.514 18.576,31.893 19.552,33.249L21.987,31.496ZM19.943,27.953C19.466,26.821 19.25,25.793 19.25,24.858L16.25,24.858C16.25,26.262 16.575,27.686 17.179,29.119L19.943,27.953ZM19.25,24.858C19.25,24.271 19.353,23.73 19.548,23.244L16.763,22.128C16.417,22.993 16.25,23.914 16.25,24.858L19.25,24.858ZM19.551,23.236C19.736,22.768 20.033,22.32 20.48,21.899L18.423,19.716C17.675,20.42 17.116,21.232 16.76,22.136L19.551,23.236ZM20.503,21.877C20.997,21.391 21.424,21.25 21.795,21.25L21.795,18.25C20.498,18.25 19.348,18.806 18.4,19.738L20.503,21.877ZM21.795,21.25C21.901,21.25 21.993,21.273 22.059,21.305L23.356,18.6C22.859,18.362 22.32,18.25 21.795,18.25L21.795,21.25ZM22.08,21.315C22.119,21.333 22.147,21.351 22.167,21.368C22.187,21.384 22.208,21.405 22.23,21.437L24.695,19.728C24.327,19.197 23.851,18.828 23.335,18.59L22.08,21.315ZM22.24,21.451L24.853,25.13L27.299,23.392L24.685,19.714L22.24,21.451ZM24.86,25.139C25.008,25.344 25.091,25.5 25.139,25.617L27.915,24.48C27.76,24.102 27.55,23.741 27.293,23.384L24.86,25.139ZM25.149,25.64C25.168,25.686 25.178,25.719 25.183,25.739C25.187,25.76 25.185,25.758 25.185,25.735L28.185,25.735C28.185,25.269 28.065,24.83 27.905,24.457L25.149,25.64ZM25.185,25.735C25.185,25.729 25.185,25.724 25.186,25.72C25.186,25.716 25.187,25.714 25.187,25.714C25.187,25.714 25.186,25.717 25.183,25.724C25.18,25.73 25.175,25.74 25.167,25.753L27.729,27.315C28.015,26.845 28.185,26.307 28.185,25.735L25.185,25.735ZM25.143,25.795C25.08,25.905 24.96,26.069 24.757,26.271L26.877,28.394C27.215,28.056 27.523,27.68 27.753,27.273L25.143,25.795ZM24.737,26.292L23.881,27.18L26.041,29.262L26.897,28.373L24.737,26.292ZM23.901,27.16C23.472,27.588 23.281,28.127 23.281,28.671L26.281,28.671C26.281,28.74 26.269,28.851 26.218,28.978C26.167,29.109 26.092,29.211 26.021,29.283L23.901,27.16ZM23.281,28.671C23.281,28.904 23.312,29.106 23.359,29.294L26.269,28.566C26.269,28.564 26.273,28.578 26.276,28.602C26.279,28.627 26.281,28.651 26.281,28.671L23.281,28.671ZM23.41,29.457C23.44,29.537 23.47,29.608 23.483,29.636C23.486,29.644 23.488,29.65 23.49,29.654C23.492,29.658 23.492,29.66 23.492,29.659C23.492,29.659 23.488,29.648 23.482,29.63L26.327,28.68C26.295,28.583 26.259,28.498 26.245,28.466C26.226,28.421 26.222,28.413 26.219,28.403L23.41,29.457ZM23.588,29.874C23.862,30.375 24.286,30.948 24.808,31.565L27.097,29.625C26.627,29.072 26.353,28.677 26.221,28.436L23.588,29.874ZM24.819,31.577C25.341,32.18 25.903,32.8 26.516,33.424L28.656,31.321C28.097,30.752 27.578,30.18 27.086,29.613L24.819,31.577ZM26.536,33.444C27.157,34.052 27.771,34.631 28.407,35.17L30.347,32.882C29.789,32.409 29.232,31.886 28.636,31.301L26.536,33.444ZM28.409,35.172C29.04,35.705 29.616,36.116 30.13,36.387L31.532,33.735C31.28,33.602 30.887,33.338 30.345,32.88L28.409,35.172ZM30.274,36.454C30.266,36.451 30.262,36.449 30.268,36.452C30.274,36.454 30.283,36.458 30.3,36.466C30.328,36.479 30.383,36.505 30.444,36.53L31.624,33.772C31.605,33.764 31.587,33.756 31.548,33.738C31.519,33.725 31.455,33.695 31.387,33.668L30.274,36.454ZM30.508,36.556C30.817,36.672 31.098,36.696 31.315,36.696L31.315,33.696C31.319,33.696 31.349,33.696 31.395,33.703C31.443,33.711 31.5,33.724 31.56,33.746L30.508,36.556ZM31.315,36.696C31.925,36.696 32.447,36.456 32.837,36.066L30.717,33.944C30.771,33.891 30.859,33.82 30.985,33.767C31.112,33.713 31.229,33.696 31.315,33.696L31.315,36.696ZM32.83,36.073L33.686,35.23L31.581,33.093L30.724,33.937L32.83,36.073ZM33.693,35.223C33.914,35.002 34.063,34.901 34.138,34.862L32.752,32.201C32.309,32.432 31.916,32.758 31.574,33.1L33.693,35.223ZM34.224,34.813C34.258,34.792 34.27,34.79 34.264,34.792C34.261,34.793 34.257,34.794 34.252,34.794C34.248,34.795 34.245,34.795 34.245,34.795L34.245,31.795C33.656,31.795 33.13,31.967 32.666,32.249L34.224,34.813ZM34.245,34.795C34.245,34.795 34.252,34.795 34.268,34.798C34.285,34.802 34.316,34.81 34.365,34.83L35.499,32.053C35.096,31.888 34.678,31.795 34.245,31.795L34.245,34.795ZM34.365,34.83C34.487,34.88 34.652,34.968 34.878,35.121L36.563,32.639C36.226,32.41 35.873,32.205 35.499,32.053L34.365,34.83ZM34.853,35.104L38.583,37.747L40.318,35.3L36.588,32.656L34.853,35.104ZM38.597,37.758C38.652,37.796 38.677,37.822 38.686,37.832C38.694,37.842 38.696,37.846 38.697,37.849L41.442,36.639C41.191,36.068 40.789,35.626 40.303,35.29L38.597,37.758ZM38.677,37.802C38.735,37.946 38.75,38.036 38.75,38.121L41.75,38.121C41.75,37.576 41.63,37.104 41.462,36.686L38.677,37.802Z" fill="#F9F9F9"/>
</svg>
